<svg xmlns="http://www.w3.org/2000/svg" width="170" height="56" viewBox="0 0 170 56"><defs><style>.a{fill:#fff;}</style></defs><path d="M170,48.433A7.541,7.541,0,0,1,162.486,56H7.514A7.544,7.544,0,0,1,0,48.433V7.567A7.544,7.544,0,0,1,7.514,0H162.486A7.541,7.541,0,0,1,170,7.567h0V48.433Z"/><path class="a" d="M69.663,41.907H66.6l-1.663-5.27H59.16l-1.595,5.276H54.6l5.746-17.98H63.9Zm-5.222-7.5-1.5-4.7q-.242-.719-.908-3.386h-.051c-.18.767-.456,1.89-.85,3.386l-1.486,4.7h4.8Z"/><path class="a" d="M83.7,35.268A7.359,7.359,0,0,1,81.916,40.5a5.208,5.208,0,0,1-3.964,1.712,3.956,3.956,0,0,1-3.675-1.842v6.807H71.42V33.213c0-1.37-.041-2.8-.112-4.259h2.516l.156,2.054h.051a5.11,5.11,0,0,1,8.15-.534A7.268,7.268,0,0,1,83.7,35.268Zm-2.917.1a5.345,5.345,0,0,0-.843-3.116,3.022,3.022,0,0,0-4.233-.727q-.1.069-.187.145A3.319,3.319,0,0,0,74.4,33.535a3.869,3.869,0,0,0-.129.88v2.157a3.468,3.468,0,0,0,.86,2.4,2.853,2.853,0,0,0,2.234.969,2.917,2.917,0,0,0,2.54-1.246,5.688,5.688,0,0,0,.887-3.325Z"/><path class="a" d="M97.849,35.268A7.373,7.373,0,0,1,96.064,40.5a5.218,5.218,0,0,1-3.971,1.712,3.963,3.963,0,0,1-3.675-1.842v6.807H85.554V33.213q0-2.079-.105-4.259h2.513l.167,2.054h.048a5.11,5.11,0,0,1,8.15-.534A7.219,7.219,0,0,1,97.849,35.268Zm-2.914.1a5.355,5.355,0,0,0-.847-3.116,3.022,3.022,0,0,0-4.413-.579,3.34,3.34,0,0,0-1.129,1.863,3.907,3.907,0,0,0-.129.88v2.157a3.468,3.468,0,0,0,.86,2.4,2.856,2.856,0,0,0,2.234.969,2.917,2.917,0,0,0,2.523-1.253,5.579,5.579,0,0,0,.9-3.321Z"/><path class="a" d="M114.012,36.863a4.809,4.809,0,0,1-1.584,3.736,7.015,7.015,0,0,1-4.865,1.575,8.488,8.488,0,0,1-4.627-1.12l.68-2.4a7.944,7.944,0,0,0,4.128,1.12,3.915,3.915,0,0,0,2.519-.729,2.4,2.4,0,0,0,.9-1.969,2.519,2.519,0,0,0-.738-1.832,6.9,6.9,0,0,0-2.465-1.387q-4.682-1.757-4.685-5.136a4.543,4.543,0,0,1,1.656-3.629,6.523,6.523,0,0,1,4.386-1.414,8.673,8.673,0,0,1,4.056.853l-.724,2.349a7.016,7.016,0,0,0-3.444-.859,3.53,3.53,0,0,0-2.38.743,2.16,2.16,0,0,0-.714,1.633,2.221,2.221,0,0,0,.819,1.763,9.05,9.05,0,0,0,2.594,1.37,8.785,8.785,0,0,1,3.4,2.191A4.608,4.608,0,0,1,114.012,36.863Z"/><path class="a" d="M122.516,31.1H119.34v6.3c0,1.6.561,2.4,1.676,2.4a5.207,5.207,0,0,0,1.272-.127l.078,2.181a6.358,6.358,0,0,1-2.224.318,3.387,3.387,0,0,1-2.649-1.027,5.073,5.073,0,0,1-.959-3.493V31.1h-1.877V28.94h1.877V26.567l2.805-.853v3.229H122.5V31.1h0Z"/><path class="a" d="M135.946,35.319a7.123,7.123,0,0,1-1.7,4.91A6.064,6.064,0,0,1,129.53,42.2a5.753,5.753,0,0,1-4.522-1.89,6.953,6.953,0,0,1-1.676-4.794,7.069,7.069,0,0,1,1.734-4.931,5.985,5.985,0,0,1,4.675-1.917,5.873,5.873,0,0,1,4.559,1.89A6.905,6.905,0,0,1,135.946,35.319Zm-2.965.065a5.818,5.818,0,0,0-.768-3.058,2.956,2.956,0,0,0-5.192,0,5.852,5.852,0,0,0-.772,3.106,5.777,5.777,0,0,0,.772,3.061,2.88,2.88,0,0,0,2.594,1.541,2.85,2.85,0,0,0,2.567-1.575A5.73,5.73,0,0,0,132.981,35.384Z"/><path class="a" d="M144.554,31.474a4.753,4.753,0,0,0-.9-.075,2.713,2.713,0,0,0-2.332,1.147,4.3,4.3,0,0,0-.714,2.558v6.8h-2.863V33c0-1.486-.027-2.849-.078-4.078h2.489l.109,2.479h.075a4.375,4.375,0,0,1,1.431-2.054,3.409,3.409,0,0,1,2.067-.685,4.653,4.653,0,0,1,.714.048v2.739h0Z"/><path class="a" d="M156.9,34.812a7.266,7.266,0,0,1-.105,1.308h-8.585a3.782,3.782,0,0,0,1.248,2.931,4.21,4.21,0,0,0,2.808.907,9.266,9.266,0,0,0,3.468-.62l.452,2.006a10.666,10.666,0,0,1-4.321.8,6.235,6.235,0,0,1-4.7-1.77,6.581,6.581,0,0,1-1.7-4.759,7.436,7.436,0,0,1,1.591-4.886,5.488,5.488,0,0,1,4.508-2.078,4.777,4.777,0,0,1,4.213,2.078A7.077,7.077,0,0,1,156.9,34.812Zm-2.72-.753a3.965,3.965,0,0,0-.554-2.212,2.508,2.508,0,0,0-2.281-1.2,2.714,2.714,0,0,0-2.278,1.181,4.285,4.285,0,0,0-.85,2.236h5.964Z"/><path class="a" d="M60.986,19.175H59.7L59,16.952H56.559l-.68,2.222H54.631l2.421-7.567h1.5Zm-2.2-3.157-.649-1.979q-.1-.3-.377-1.428h-.02q-.112.483-.357,1.428L56.78,16H58.8Z"/><path class="a" d="M66.827,13.7l-2.04,5.458h-1.17l-2-5.458h1.292l.925,2.886q.235.719.391,1.37h.034a13.983,13.983,0,0,1,.391-1.37l.915-2.886h1.258Z"/><path class="a" d="M72.27,19.175H71.189l-.088-.63H71.06a1.855,1.855,0,0,1-1.584.753,1.624,1.624,0,0,1-1.238-.493,1.558,1.558,0,0,1-.425-1.109,1.715,1.715,0,0,1,.83-1.527,4.292,4.292,0,0,1,2.336-.517v-.1q0-1.079-1.125-1.079a2.513,2.513,0,0,0-1.414.4l-.245-.8a3.466,3.466,0,0,1,1.863-.473q2.129,0,2.128,2.256v2.01A8.5,8.5,0,0,0,72.27,19.175ZM71.023,17.3v-.863q-2-.034-2,1.1a.822.822,0,0,0,.235.64.836.836,0,0,0,.588.212,1.206,1.206,0,0,0,.738-.253A1.029,1.029,0,0,0,71,17.487a.887.887,0,0,0,.017-.205Z"/><path class="a" d="M75.67,12.073a.687.687,0,0,1-.211.527.762.762,0,0,1-.547.2.678.678,0,0,1-.507-.209.711.711,0,0,1-.207-.52.686.686,0,0,1,.211-.517.782.782,0,0,1,1.047,0A.687.687,0,0,1,75.67,12.073Zm-.133,7.1h-1.2V13.7h1.2Z"/><path class="a" d="M78.924,19.175h-1.2V11.2h1.2Z"/><path class="a" d="M85.18,19.175H84.1l-.088-.63H83.98A1.855,1.855,0,0,1,82.4,19.3a1.624,1.624,0,0,1-1.238-.493,1.555,1.555,0,0,1-.425-1.109,1.715,1.715,0,0,1,.83-1.527,4.292,4.292,0,0,1,2.336-.517v-.1q0-1.079-1.125-1.079a2.513,2.513,0,0,0-1.414.4l-.245-.8a3.466,3.466,0,0,1,1.863-.473q2.129,0,2.128,2.256v2.01A8.671,8.671,0,0,0,85.18,19.175ZM83.932,17.3v-.863q-2-.034-2,1.1a.824.824,0,0,0,.231.64.84.84,0,0,0,.588.212,1.206,1.206,0,0,0,.738-.253,1.029,1.029,0,0,0,.415-.647.87.87,0,0,0,.024-.205Z"/><path class="a" d="M92.419,16.35a3.1,3.1,0,0,1-.758,2.2,2.139,2.139,0,0,1-1.639.729,1.823,1.823,0,0,1-1.7-.966H88.3l-.068.842H87.21c.031-.442.044-.931.044-1.472V11.179h1.2v3.3a1.863,1.863,0,0,1,1.737-.911,1.987,1.987,0,0,1,1.6.777A3.066,3.066,0,0,1,92.419,16.35Zm-1.227.045a2.205,2.205,0,0,0-.357-1.3,1.28,1.28,0,0,0-1.791-.312c-.024.017-.049.036-.072.055a1.424,1.424,0,0,0-.479.774,1.7,1.7,0,0,0-.044.38v.955a1.375,1.375,0,0,0,.374.966,1.217,1.217,0,0,0,.932.4,1.238,1.238,0,0,0,1.061-.507A2.329,2.329,0,0,0,91.191,16.394Z"/><path class="a" d="M95.227,19.175h-1.2V11.2h1.2Z"/><path class="a" d="M101.66,16.172a2.907,2.907,0,0,1-.044.551H98a1.6,1.6,0,0,0,.524,1.236,1.781,1.781,0,0,0,1.183.383,3.962,3.962,0,0,0,1.462-.257l.19.842a4.5,4.5,0,0,1-1.819.342,2.617,2.617,0,0,1-1.979-.746,2.752,2.752,0,0,1-.721-2,3.14,3.14,0,0,1,.68-2.054,2.3,2.3,0,0,1,1.9-.877,2.015,2.015,0,0,1,1.771.877A2.966,2.966,0,0,1,101.66,16.172Zm-1.149-.315a1.67,1.67,0,0,0-.235-.931,1.049,1.049,0,0,0-.959-.507,1.14,1.14,0,0,0-.959.493,1.827,1.827,0,0,0-.357.942h2.509Z"/><path class="a" d="M111.476,16.384a3.012,3.012,0,0,1-.714,2.054,2.541,2.541,0,0,1-1.986.832,2.415,2.415,0,0,1-1.9-.8,2.913,2.913,0,0,1-.707-2.01,2.974,2.974,0,0,1,.728-2.082,2.518,2.518,0,0,1,1.969-.808,2.463,2.463,0,0,1,1.918.8A2.888,2.888,0,0,1,111.476,16.384Zm-1.248.027a2.452,2.452,0,0,0-.34-1.287,1.189,1.189,0,0,0-1.081-.651,1.205,1.205,0,0,0-1.1.651,2.5,2.5,0,0,0-.34,1.311,2.451,2.451,0,0,0,.34,1.287,1.231,1.231,0,0,0,2.173,0,2.444,2.444,0,0,0,.347-1.311Z"/><path class="a" d="M117.786,19.175h-1.2v-3.15q0-1.448-1.091-1.448a1.081,1.081,0,0,0-.87.4,1.417,1.417,0,0,0-.34.938v3.26h-1.2V15.261q0-.719-.044-1.561h1.061l.054.842h.034a1.745,1.745,0,0,1,.626-.651,2.031,2.031,0,0,1,1.091-.3,1.716,1.716,0,0,1,1.261.493,2.407,2.407,0,0,1,.626,1.808v3.284Z"/><path class="a" d="M125.535,14.61h-1.326v2.65q0,1.027.7,1.027a2.089,2.089,0,0,0,.534-.055l.034.921a2.707,2.707,0,0,1-.935.134,1.436,1.436,0,0,1-1.125-.455,2.161,2.161,0,0,1-.4-1.472V14.621h-.792V13.7h.792v-1l1.183-.36v1.37h1.326v.911h0Z"/><path class="a" d="M131.947,19.175h-1.2V16.048q0-1.473-1.091-1.472a1.15,1.15,0,0,0-1.149.853,1.49,1.49,0,0,0-.054.438v3.308h-1.2V11.2h1.2v3.28h.024a1.823,1.823,0,0,1,1.629-.887,1.669,1.669,0,0,1,1.238.493,2.5,2.5,0,0,1,.612,1.832v3.26h0Z"/><path class="a" d="M138.125,16.172a2.907,2.907,0,0,1-.044.551h-3.614a1.6,1.6,0,0,0,.524,1.236,1.777,1.777,0,0,0,1.18.383,3.962,3.962,0,0,0,1.462-.257l.19.842A4.508,4.508,0,0,1,136,19.27a2.618,2.618,0,0,1-1.979-.746,2.769,2.769,0,0,1-.717-2,3.144,3.144,0,0,1,.68-2.054,2.3,2.3,0,0,1,1.9-.877,2.015,2.015,0,0,1,1.771.877A2.966,2.966,0,0,1,138.125,16.172Zm-1.149-.315a1.664,1.664,0,0,0-.235-.931,1.049,1.049,0,0,0-.959-.507,1.14,1.14,0,0,0-.959.493,1.82,1.82,0,0,0-.357.942h2.509Z"/><path class="a" d="M41.341,20.3c-.462.445-.921.87-1.36,1.315A9.128,9.128,0,0,0,37.818,25.1a7.709,7.709,0,0,0-.367,2.513,9.016,9.016,0,0,0,.629,3.441,7.218,7.218,0,0,0,2.768,3.321c.4.267.836.479,1.258.709.2.113.214.12.126.342a37.271,37.271,0,0,1-2.258,4.848,15.03,15.03,0,0,1-2.309,3.177,5.857,5.857,0,0,1-2.536,1.644,3.716,3.716,0,0,1-1.867.1,8.738,8.738,0,0,1-1.68-.6c-.5-.223-1-.442-1.493-.685a3.257,3.257,0,0,0-1.38-.236c-.68,0-1.333,0-2,.051a3.408,3.408,0,0,0-.989.247c-.714.288-1.4.63-2.115.921a3.956,3.956,0,0,1-3.784-.212,8.088,8.088,0,0,1-1.935-1.644,22.673,22.673,0,0,1-3.176-4.886,20.42,20.42,0,0,1-1.336-3.208Q13,33.727,12.7,32.487a18.468,18.468,0,0,1-.408-6.006c.071-.565.119-1.137.228-1.695a11.629,11.629,0,0,1,.68-2.212,10.581,10.581,0,0,1,2.2-3.352,7.981,7.981,0,0,1,2.989-1.962,7.612,7.612,0,0,1,2.72-.49,9.6,9.6,0,0,1,1.312.058,8.748,8.748,0,0,1,1.431.342c.789.264,1.557.575,2.339.849a3.891,3.891,0,0,0,1.924.223,9.052,9.052,0,0,0,1.53-.445c.792-.281,1.584-.572,2.38-.8a8.872,8.872,0,0,1,3.142-.308,8.123,8.123,0,0,1,4.08,1.459A9.154,9.154,0,0,1,41.341,20.3Z"/><path class="a" d="M34.32,8.255v.969A8.482,8.482,0,0,1,32.786,13.8a8.681,8.681,0,0,1-2.118,2.191,5.8,5.8,0,0,1-2.421,1.051c-.286.045-.571.079-.857.106a2.211,2.211,0,0,1-.323,0,9.762,9.762,0,0,1,0-1.12,11.856,11.856,0,0,1,.34-1.866A8.269,8.269,0,0,1,29,11.1,7.6,7.6,0,0,1,31.715,9a6.705,6.705,0,0,1,1.822-.579C33.8,8.375,34.024,8.317,34.32,8.255Z"/></svg>