<svg xmlns="http://www.w3.org/2000/svg" width="35.822" height="32.879" viewBox="0 0 35.822 32.879"><defs><style>.a{fill:#fa5531;}</style></defs><g transform="translate(0 -2.465)"><path class="a" d="M9.6,24.659h7.761a.6.6,0,0,0,0-1.194H9.6a.6.6,0,0,0,0,1.194Z" transform="translate(-3.627 -8.462)"/><path class="a" d="M25.12,29.465H9.6a.6.6,0,1,0,0,1.194H25.12a.6.6,0,1,0,0-1.194Z" transform="translate(-3.627 -10.88)"/><path class="a" d="M25.12,35.465H9.6a.6.6,0,0,0,0,1.194H25.12a.6.6,0,0,0,0-1.194Z" transform="translate(-3.627 -13.298)"/><path class="a" d="M32.283,2.507,11.9,2.465a3.544,3.544,0,0,0-3.54,3.54V9.065l-4.818.01A3.544,3.544,0,0,0,0,12.615V25.237a3.544,3.544,0,0,0,3.54,3.54H7.164v5.97a.6.6,0,0,0,1.039.4L14,28.776l9.926-.041a3.544,3.544,0,0,0,3.54-3.54v-.067l3.14,3.454a.6.6,0,0,0,1.039-.4V22.21h.639a3.544,3.544,0,0,0,3.54-3.54V6.047A3.544,3.544,0,0,0,32.283,2.507ZM26.27,25.195a2.349,2.349,0,0,1-2.349,2.346l-10.191.042a.6.6,0,0,0-.439.2L8.359,33.2V28.179a.6.6,0,0,0-.6-.6H3.54a2.349,2.349,0,0,1-2.346-2.346V12.615a2.349,2.349,0,0,1,2.348-2.346l5.414-.011h0l14.967-.031a2.349,2.349,0,0,1,2.346,2.346V25.195Zm8.359-6.526a2.349,2.349,0,0,1-2.346,2.346H31.046a.6.6,0,0,0-.6.6v5.023l-2.985-3.284V12.573a3.545,3.545,0,0,0-3.542-3.54l-14.37.029V6A2.349,2.349,0,0,1,11.9,3.658L32.281,3.7h0a2.349,2.349,0,0,1,2.346,2.346V18.669Z"/></g></svg>