<svg xmlns="http://www.w3.org/2000/svg" width="35.277" height="35.276" viewBox="0 0 35.277 35.276"><defs><style>.a{fill:#fa5531;}</style></defs><g transform="translate(0 -0.01)"><g transform="translate(0 0.01)"><g transform="translate(0 0)"><path class="a" d="M108.695,386.962a.589.589,0,0,0-.816.157,2.352,2.352,0,1,1-3.265-3.265.588.588,0,0,0-.659-.974,3.528,3.528,0,1,0,4.9,4.9A.588.588,0,0,0,108.695,386.962Z" transform="translate(-95.346 -356.406)"/><path class="a" d="M23.518,17.059a10.513,10.513,0,0,0-7.483,3.1l-5.82,5.82a.588.588,0,1,0,.831.831l5.82-5.82a9.408,9.408,0,0,1,13.3,13.3l-7.484,7.484a.587.587,0,0,0-.111.678c.717,1.435.365,4.334-.65,5.349l-1.936,1.936L1.419,31.17l1.936-1.936c1-1,3.806-1.354,5.267-.689l12.4,12.4a.588.588,0,0,0,.831-.831L9.383,27.642a.589.589,0,0,0-.153-.11c-1.889-.946-5.337-.5-6.706.87L.172,30.754a.587.587,0,0,0,0,.831l19.4,19.4a.588.588,0,0,0,.831,0l2.352-2.352c1.277-1.277,1.752-4.365,1.041-6.308l7.2-7.2a10.583,10.583,0,0,0-7.483-18.067Z" transform="translate(0 -15.884)"/><path class="a" d="M444.244.7a2.354,2.354,0,0,0-3.326,0l-.776.776a.588.588,0,1,0,.831.831l.776-.776a1.176,1.176,0,1,1,1.663,1.663l-.775.776a.588.588,0,1,0,.831.831l.776-.775a2.351,2.351,0,0,0,0-3.326Z" transform="translate(-409.656 -0.01)"/><path class="a" d="M294.007,70.069a.59.59,0,0,0,.247-.055,5.918,5.918,0,0,1,4.9-.015.588.588,0,0,0,.488-1.071,7.1,7.1,0,0,0-5.885.018.588.588,0,0,0,.248,1.122Z" transform="translate(-273.201 -63.595)"/></g></g></g></svg>