<svg xmlns="http://www.w3.org/2000/svg" xmlns:xlink="http://www.w3.org/1999/xlink" width="411" height="271" viewBox="0 0 411 271"><defs><style>.a,.i{fill:#6c63ff;}.a,.d,.k{opacity:0.1;}.b{fill:url(#a);}.c{fill:#65617d;}.e{fill:#a5636d;}.f{fill:#e7effd;}.g{fill:#3f3d56;}.h{fill:#5f5d7e;}.j{fill:#4c3e42;}.l{fill:#e6e8ec;}.m{fill:#444053;}.n{opacity:0.7;}.o{fill:url(#b);}.p{fill:#fbbebe;}.q{opacity:0.05;}.r{fill:#5c5c8e;}.s{fill:#f7cddd;}.t{fill:#7c5c5c;}.u{fill:#3acc6c;}.v{opacity:0.5;}</style><linearGradient id="a" x1="0.5" y1="1" x2="0.5" gradientUnits="objectBoundingBox"><stop offset="0" stop-color="gray" stop-opacity="0.251"/><stop offset="0.54" stop-color="gray" stop-opacity="0.122"/><stop offset="1" stop-color="gray" stop-opacity="0.102"/></linearGradient><linearGradient id="b" x1="0.5" y1="1" x2="0.5" y2="0" xlink:href="#a"/></defs><g transform="translate(-9 -26)"><path class="a" d="M381.133,222.375q-1.924,1.7-3.934,3.3c-.225.183-.458.359-.687.545a138.127,138.127,0,0,1-15.021,10.177l-.976.57c-.236.143-.469.276-.715.409-5.458,3.16-11.119,6.069-16.849,8.824l-.061.032-.433.2q-6.931,3.332-14.07,6.378l-.114.043q-3.219,1.36-6.438,2.647c-.876.359-1.756.692-2.636,1.033-1.656.635-3.315,1.259-4.989,1.858l-.207.079-.358.126-.447.165q-6.548,2.346-13.272,4.333l-.079.022q-4.689,1.37-9.438,2.536l-.433.108c-4.649,1.126-9.374,2.095-14.127,2.87l-1.094.176q-5.214.821-10.5,1.342c-19.81,1.919-39.856.359-59.544-2.317-39.756-5.409-78.986-15.55-114.765-31.445q-10.3-4.574-20.2-9.793c-.054-.029-.1-.057-.154-.083Q63.665,223.386,57.9,220c-1.127-.653-2.246-1.32-3.358-1.991q-2.053-1.241-4.088-2.511-2.682-1.679-5.365-3.44l-.837-.56-.322-.219c-.454-.3-.9-.61-1.352-.918-16.809-11.479-31.8-25.39-38.88-42.8-8.183-20.088-2.947-45.557,17.321-57.43,6.967-4.089,15.064-6.31,23.247-8.143l.837-.187c1.384-.3,2.768-.6,4.145-.893,4.825-1.026,9.674-2.045,14.478-3.182h0c2.5-.592,4.982-1.212,7.446-1.883l1.009-.28a120.319,120.319,0,0,0,17.385-6.141H89.6q.907-.4,1.788-.836c.379-.179.758-.359,1.137-.556A67.364,67.364,0,0,0,110,75.776c.4-.4.783-.811,1.159-1.22.29-.319.576-.642.851-.965,3.473-4.061,5.876-8.57,6.334-13.355h0a17.269,17.269,0,0,0-.215-4.818c-.562-3.01-1.105-5.955-1.506-8.828a45.374,45.374,0,0,1,.036-15.536h0a29.27,29.27,0,0,1,8.015-14.689q1.034-1.076,2.228-2.152a46.932,46.932,0,0,1,12.385-7.849q.837-.359,1.685-.717C153.516.554,168.591-.508,182.675.195a226.877,226.877,0,0,1,39.076,5.452c1.019.23,2.039.47,3.051.717a270.274,270.274,0,0,1,32.188,9.983c27.317,10.306,53.1,24.615,77.187,40.405l.715.466q1.509.986,3,1.98,2.886,1.919,5.722,3.863l1.277.872q.944.646,1.878,1.295l1.917,1.331h0a2.1,2.1,0,0,1,.258.183l1.631,1.134c.944.66,1.881,1.324,2.822,1.991h0l2.017,1.435c.418.3.84.6,1.259.9l2.146,1.571.479.359c.1.072.2.143.3.222l.061.039c5.815,4.279,11.491,8.717,16.809,13.419l.687.61.072.065c.579.517,1.159,1.04,1.727,1.568a116.676,116.676,0,0,1,18.254,20.691C420.567,145.545,413.632,193.724,381.133,222.375Z" transform="translate(9 26)"/><path class="b" d="M33.315,211h0l-.171-.168a5.531,5.531,0,0,1-1.879-4.254v-.029a2.83,2.83,0,0,1,.512-1.7,37.933,37.933,0,0,0,.569-4.38,16.127,16.127,0,0,0,.243-3.535,1.832,1.832,0,0,1-.018-.312c-.025-.289-.061-.559-.111-.823-.379-2.024-.737-8.358-.741-8.422v-.094c.01-.172.095-1.731.068-3.38v-.521c0-.09-.009-.179-.014-.268-.01-.175-.019-.34-.019-.505l0-.026c-.007-.108-.014-.217-.024-.333,0-.048-.01-.095-.016-.141a1.665,1.665,0,0,1-.02-.218.485.485,0,0,1-.018-.158,6.817,6.817,0,0,0-.178-.949,4.987,4.987,0,0,1-.161-1.437c0-.106.006-.215.012-.32s.012-.217.012-.326l.022-.27c0-.023,0-.04,0-.057a.748.748,0,0,1,0-.144c0-.047.012-.093.02-.139a1.169,1.169,0,0,0,.023-.2c.142-1.03.376-2,.5-2.526.027-.113.049-.2.064-.273a6.006,6.006,0,0,0,0-1.219c0-.033,0-.067,0-.1a2.1,2.1,0,0,0-.02-.336,1.975,1.975,0,0,1-.016-.279c0-.073,0-.141-.008-.2,0-.029-.006-.059-.01-.089v-.005a3.268,3.268,0,0,1-.026-.354,1.529,1.529,0,0,1-.018-.287l-.047-.582c0-.016,0-.028,0-.039a.646.646,0,0,0,0-.111c0-.039-.008-.078-.013-.117a1.4,1.4,0,0,1-.016-.178l-.031-.442c0-.041-.008-.082-.014-.121a1.255,1.255,0,0,1-.015-.17v-.144c0-.054-.011-.109-.018-.163a2.1,2.1,0,0,1-.022-.257l-.022-.284c-.007-.1-.018-.205-.028-.3-.005-.049-.01-.094-.014-.138s-.009-.077-.013-.115a2.457,2.457,0,0,1-.023-.287.094.094,0,0,1,.005-.03.112.112,0,0,0-.005-.078.714.714,0,0,1-.022-.209v-.179c0-.05-.01-.1-.016-.144a1.625,1.625,0,0,1-.016-.187V167.6l.005-.034c.16-.987.239-1.83.277-2.363V163.6a2.017,2.017,0,0,0,0-.209v-.417c-.014-.3-.042-.592-.082-.877a10.586,10.586,0,0,1-.086-1.142V157.3a4.144,4.144,0,0,0,.025-.554v-.553c.023-.533.055-1.048.086-1.547l.008-.13v-.256c0-.029,0-.058,0-.087a.719.719,0,0,1,0-.185,1.773,1.773,0,0,0,.017-.284v-.186a1.861,1.861,0,0,0,.022-.341,3.164,3.164,0,0,0,.022-.36c.008-.1.017-.2.026-.3.019-.2.035-.379.035-.538a1.134,1.134,0,0,0,.022-.258v-.586l1.027-9.9c0-.013.319-1.331.512-2.591,0-.038.011-.077.017-.115a1.86,1.86,0,0,0,.029-.28,6.662,6.662,0,0,0,.072-1.344,4.421,4.421,0,0,1,0-.8c.026-.3.07-.616.114-.916.2-1.441.569-3.2.677-3.7l.046-.212a7.3,7.3,0,0,1,.036-1.164,4.814,4.814,0,0,1,.411-1.567,5.815,5.815,0,0,0,.405-1.437c0-.028.01-.063.015-.1s.013-.085.017-.1.006-.024.009-.037a.355.355,0,0,0,.016-.089,5.209,5.209,0,0,1-.6-.514,10.7,10.7,0,0,1-1.983-2.8l-.042-.093c-.1-.18-.183-.335-.241-.448l0-.006-.053-.1c-.017-.033-.032-.068-.046-.1l.841-3.83.025-.093c0-.059.017-1.464.107-2.95,0-.059.01-.116.016-.174.012-.129.024-.249.024-.373a9.4,9.4,0,0,1,.48-2.875,17.089,17.089,0,0,0,.916-3.981c.035-.219.865-5.395,1.156-7.405,0-.034.012-.079.019-.115s.01-.05.01-.057v-.09c0-.033.01-.065.016-.1a1,1,0,0,0,.02-.164.911.911,0,0,0-.139-.017c-.037,0-.074,0-.111,0a1.681,1.681,0,0,0-.3.028H35.4s0-.021.009-.05.015-.075.027-.133l.02-.1c.023-.117.05-.258.087-.43-.041,0-.085-.005-.134-.005a1.631,1.631,0,0,0-.3.027h-.058l.009-.053c.418-2.075,2.561-12.552,3.755-15.088a8.328,8.328,0,0,0,.57-1.9.044.044,0,0,1,0-.022,44.988,44.988,0,0,0,.522-7.62v-.869l-.286.094-.068.021c-.671.235-2.24.838-2.326,1.365-.113.678-3.4,5.243-3.429,5.289a8.294,8.294,0,0,1-4.162,4.613,6.141,6.141,0,0,1-2.918.715,7.251,7.251,0,0,1-4.848-1.793c-.378-.487-5.9-3-9.166-4.462-.326-.14-.578-.25-.9-.4-.246-.113-.474-.213-.694-.31l-.225-.1-1.4-.622-.082-.036c-.137-.054-.254-.1-.358-.154l.022-.115c0-.021,0-.041,0-.061l-.358-.162.38.119c.073-.329.169-.735.315-1.254,0-.013.008-.023.012-.034a.514.514,0,0,0,.024-.077l.008-.037a1.382,1.382,0,0,1,.041-.15c.016-.047.031-.1.046-.148s.033-.11.051-.164c0-.012.009-.025.014-.038a.2.2,0,0,0,.021-.073c.019-.062.039-.125.059-.189l.045-.141v-.05c.16-.488.343-.987.544-1.48.014-.04.031-.081.048-.123s.026-.064.038-.1l-.562-.719-.39-.5L9.179,72.7l-.29-.359c-.036-.024-.071-.05-.106-.076l-.073-.054-4.9-4.6L2.354,66.251l-.469-.438a6,6,0,0,1,.04-8.767.677.677,0,0,1,.444-.219c.346,0,.525.485.592.668.012.033.021.056.027.068,1.718.219,4.127,1.474,7.158,3.73.449.338.888.679,1.306,1.013,1.795,1.43,3.08,2.636,3.092,2.648l.9,1.006.337.359a1.42,1.42,0,0,0-.093-.92c-.018-.024-.025-.038-.023-.043h0a25.232,25.232,0,0,1,1.908,1.713v-.01s0-.008,0-.012l.029.043c.19.174.314.3.315.3,1.019,1.8,5.491,2.836,5.536,2.846l1.944-1.2c.17-2.191,3.279-4.81,3.31-4.836a7.753,7.753,0,0,0,1.431-3.234,2.2,2.2,0,0,1,2.192-1.949,1.524,1.524,0,0,1,.206.012L32.76,55.8a3.212,3.212,0,0,0,1.5-1.937,2.323,2.323,0,0,0,.047-.736.175.175,0,0,0,0-.043c-.17-1.8,1.809-5.314,1.829-5.35.007,0,.685-.3.981-2.645v-.05c.039-.347.072-.734.1-1.149v-.083a5.121,5.121,0,0,1,1-3.251,1.606,1.606,0,0,1,.878-.562l4.853-.287c.4-1.351,10.683-3,10.786-3.014a6.388,6.388,0,0,0,2.8-2.156,2.531,2.531,0,0,1,.891-.873,1.369,1.369,0,0,1,.67-.176h.023a1.041,1.041,0,0,1,.413.086l.158.148c-.007-.07-.016-.135-.025-.2v-.006c0-.032-.009-.065-.013-.1-.016-.125-.033-.25-.049-.359-.19-.1-.385-.2-.612-.335a13.523,13.523,0,0,1-6.857-10.991V20.39c-.046.023-.093.043-.139.063l-.08.035a6.178,6.178,0,0,1-.938.327h-.035a.188.188,0,0,1-.058.018,1.707,1.707,0,0,1-.19.043,4.418,4.418,0,0,1-.933.1c-.077,0-.156,0-.233-.006a2.548,2.548,0,0,1-.286-.032,2.453,2.453,0,0,1-.426-.09l-.076-.018-.075-.022c.073-.225.129-.39.182-.536a11.848,11.848,0,0,1,2.58-4.142,4.846,4.846,0,0,0,.4-.446,1.388,1.388,0,0,0,.229-.385,1.49,1.49,0,0,0,.054-.877,6.86,6.86,0,0,0-.53-1.318A.49.49,0,0,0,51.524,13c-.006-.013-.012-.027-.019-.04a.218.218,0,0,1-.031-.089,2.663,2.663,0,0,1-.1-.259.2.2,0,0,0,0-.047,1.438,1.438,0,0,1-.072-.237v-.079c0-.025-.01-.05-.015-.075a1.053,1.053,0,0,1-.031-.212v-.043a2.088,2.088,0,0,1,0-.259c0-.013,0-.024,0-.035a.371.371,0,0,1,0-.083c0-.022.007-.043.011-.065a.571.571,0,0,0,.013-.1,1.2,1.2,0,0,1,.04-.148,1.119,1.119,0,0,1,.04-.122,3.4,3.4,0,0,1,1.056-1.437c.253-.211.527-.4.792-.581L53.321,9a8.234,8.234,0,0,0,1.192-.9A9.353,9.353,0,0,0,56.2,5.57a8.318,8.318,0,0,1,1.9-2.71,5.106,5.106,0,0,1,3.353-1.014,12.5,12.5,0,0,1,1.729.134c.247.035.5.073.744.111h.008a17.588,17.588,0,0,0,2.619.268,6,6,0,0,0,1.866-.268,10.16,10.16,0,0,0,1.9-.923A11.45,11.45,0,0,1,71.987.324,5.175,5.175,0,0,1,73.808,0,6.025,6.025,0,0,1,79.1,3.231a13.409,13.409,0,0,1,.959,2.814,17.831,17.831,0,0,0,.67,2.184,15.816,15.816,0,0,0,.741,1.527,15.65,15.65,0,0,1,.759,1.57,8.9,8.9,0,0,1,.587,4c-.023.265-.054.5-.093.719a1.893,1.893,0,0,1-.043.226,5.252,5.252,0,0,1-.114.514c-.006.023-.013.045-.02.068a.506.506,0,0,0-.031.144c-.066.215-.148.48-.229.693-.07.188-.156.391-.261.622-.221.49-.479.972-.728,1.438-.115.214-.233.435-.345.653a9.2,9.2,0,0,0-.844,2.184.031.031,0,0,1,0,.018c-.074.34-.115.676-.158,1.03l-.021.17c0,.042-.011.085-.018.126a1.252,1.252,0,0,0-.022.2.3.3,0,0,0,0,.04.309.309,0,0,1,0,.108c0,.026-.01.052-.016.078a.8.8,0,0,0-.026.176l-.022.144c-.014.088-.042.22-.054.262,0,.011-.007.023-.011.036a.308.308,0,0,0-.021.094c-.034.133-.069.254-.1.359a2.832,2.832,0,0,1-.715,1.1l-.115.1a1.822,1.822,0,0,1-.393.248l-.154.058A1.461,1.461,0,0,1,77.9,27c-.031.059-.061.119-.091.18s-.051.1-.077.154c-.134.253-.279.5-.429.743l-.063.1c-.082.129-.166.263-.255.385v.018a13.71,13.71,0,0,1-1.363,1.682c.011.036.02.071.029.105s.025.092.039.139a9.665,9.665,0,0,0,.451,1.254l.029.04a15.977,15.977,0,0,0,2.147,2.975l2.451,1.879a14.418,14.418,0,0,0,3.315,1.139c.823,0,5.481,1.2,6.052,1.822a1.486,1.486,0,0,0,.92.321H91.1a10.308,10.308,0,0,0,1.2-.151l.229.076c.272-.039.46-.075.462-.076.017.006,1.864.618,3.475,1.01h.061a2.7,2.7,0,0,1,1.668,1.555A4.082,4.082,0,0,1,98.636,45a3.253,3.253,0,0,0,.795,3.075,7.557,7.557,0,0,1,1.031,2.9,3.346,3.346,0,0,1,1.939,1.656,9.4,9.4,0,0,1,.422,3.327c-.021.39-.022.651-.022.653h0c.35.009,3.43.169,3.761,2.907.339,2.81,3.454,4.14,3.486,4.153.1.1,2.336,2.351,2.336,3.413a6.156,6.156,0,0,0,1.438,2.673,2.59,2.59,0,0,1,.353.514,7.115,7.115,0,0,0,.321.783c.5,1.135,1.325,3.035,1.16,3.485-.094.256.2.863.53,1.565.471.988,1.057,2.218.7,2.83a24.908,24.908,0,0,0-1.371,2.845c-.027.051-2.706,5.133-4.055,6.09s-7.585,9.027-7.648,9.108-6.739,7.764-6.739,10.129c0-.007-.2-.338-.554-.88-.123-.214-.264-.434-.451-.718l.1,1.706.909,15.352-.016.014a30.4,30.4,0,0,1-2.847,2.207,2.889,2.889,0,0,1-1.1.457,3.924,3.924,0,0,1-.8.079,10.179,10.179,0,0,1-5.181-2.012,3.95,3.95,0,0,0-1.7-.194c-.74,0-1.706.037-2.871.111v.305a30.323,30.323,0,0,1-.57,8.716,4.586,4.586,0,0,1-.862,1.988l-.225,8.026c0,.122.272,12.263-.573,14.171s-.855,9.656-.855,9.734c.006.037.564,3.708-.058,4.495-.6.764-.216,3.613.283,5.289.453,1.524.062,5.315.058,5.353l-.04,8.167c-.233.136-.46.266-.715.41-4.911,2.846-10.426,5.737-16.86,8.838.05-.42.095-.762.127-1.012l.009-.066c.166-1.343,1.022-7.9,1.03-7.966,0-.083-.451-8.372-.114-8.709.311-.312,1.5-3.625.913-4.725s-1.489-8.219-1.489-8.569c0-.389-.73-9.526-.737-9.618a77.892,77.892,0,0,1-.512-7.8,51.294,51.294,0,0,0-.462-6.431c0-4.165-2.427-8.721-2.452-8.767l-.06.166-.165.417-4.992,13.441c-.008.042-.861,4.229-1.6,6.6a42.457,42.457,0,0,0-1.11,4.94l-.053.306c-.007.038-.014.074-.021.108a1.163,1.163,0,0,0-.03.211l-.036.229c0,.03.382,3.033-.232,3.989a14.313,14.313,0,0,0-1.31,4.671c0,.79.057,3.842.058,3.873,0,.061.235,6.1-.4,6.773a1.039,1.039,0,0,0-.286,1.251c.043.189,1.035,4.641.572,5.81a11.584,11.584,0,0,0-.114,3.977v.006c-.038.362-.93,8.872-1.027,9.275-.082.341-.6,3.11-.261,4.01a.41.41,0,0,0,.2.259c-2.139.912-4.307,1.8-6.442,2.651-.841.338-1.7.669-2.522.99l-.116.045c-1.984.761-3.524,1.335-4.992,1.861l-.206.078ZM94.388,68.482l-.065.09v.012c.005.325.021,1.48,0,2.675a13.1,13.1,0,0,1-.236,2.939c-.211.634.306,7.577.634,11.659v.094c.017.212.033.416.05.622.012.144.024.286.035.431a3.584,3.584,0,0,0,.759-1.535c.039-.575,1.756-2.642,3.393-3.891a8.531,8.531,0,0,1,1.009-.687,2.692,2.692,0,0,1,.974-.359c0-.016.205-1.748-.205-2.25a.352.352,0,0,0-.249-.139c-.733-.057-1.364-1.861-1.371-1.879C99.08,76.222,95.52,72.015,94.388,68.482Z" transform="translate(290 74)"/><path class="c" d="M0,10.689S2.133.056,8.986,0L14,9.81l-3.372,2.179S3.386,12.209,0,10.689Z" transform="translate(299 142)"/><path class="d" d="M14,9.794l-3.361,2.195a41.663,41.663,0,0,1-8.768-.7A10.374,10.374,0,0,1,0,10.688a.617.617,0,0,1,.037-.171.232.232,0,0,1,0-.042,23.37,23.37,0,0,1,1.3-3.908c.209-.478.451-.97.708-1.462A10.192,10.192,0,0,1,6.395.569,6.194,6.194,0,0,1,8.68,0h.3L9.1.216l1.695,3.318Z" transform="translate(299 142)"/><path class="c" d="M5.105,31.175s7.015-.672,7.633-.168,4.6,3.09,6.962,1.461.785-7.3.785-7.528-.225-8.256-.225-8.256l-4.209-5.673L10.775,1.072,0,0,.278,15.784.225,23.872Z" transform="translate(363 166)"/><path class="d" d="M5.105,31.175s7.015-.672,7.633-.168,4.6,3.09,6.962,1.461.785-7.3.785-7.528-.225-8.256-.225-8.256l-4.209-5.673L10.775,1.072,0,0,.278,15.784.225,23.872Z" transform="translate(363 166)"/><path class="e" d="M16,10.162S15.447,16.895,11.164,17a33.612,33.612,0,0,1-2.834-1.913C4.582,12.331-1.361,7.031.28,2.1c2.356-7.063,13.8,5.968,13.8,5.968l.882.969Z" transform="translate(291 132)"/><path class="d" d="M8,1.138S7.449,7.894,3.18,8A33.48,33.48,0,0,1,.356,6.08L0,5.619a5.6,5.6,0,0,0,2.33.624,3.127,3.127,0,0,0,3.041-1.9A24.328,24.328,0,0,0,6.549,1.663,8.01,8.01,0,0,0,6.976,0Z" transform="translate(299 141)"/><path class="f" d="M5.885,14l-.968-1.224L1.68,8.653,0,6.547a5.687,5.687,0,0,0,2.352.623A3.16,3.16,0,0,0,5.428,5.262,23.693,23.693,0,0,0,6.619,2.569c.536-1.5.525-2.272.335-2.534A17.236,17.236,0,0,1,8.824,1.67l.025.021.309.29.119.226,1.637,3.224v.134C11.065,6.589,11.615,13.08,5.885,14Z" transform="translate(299 140)"/><path class="g" d="M16.541,104.4a1.645,1.645,0,0,0-.338-.221h-.029c-.676-.282-.058-3.764.058-4.214s1.018-9.135,1.018-9.135a11.749,11.749,0,0,1,.115-3.928c.453-1.182-.568-5.714-.568-5.714a1.044,1.044,0,0,1,.284-1.236c.622-.675.4-6.681.4-6.681s-.054-3.028-.054-3.817a13.846,13.846,0,0,1,1.3-4.6c.622-.957.227-3.928.227-3.928h0l.032-.229c.018-.082.032-.189.05-.314l.054-.3a1.452,1.452,0,0,1,.04-.229c.032-.179.068-.357.108-.586.022-.129.047-.264.076-.4.083-.429.18-.9.284-1.382.032-.15.068-.3.1-.454s.086-.357.133-.543c.029-.111.054-.218.086-.329.083-.329.173-.646.27-.95.719-2.36,1.586-6.514,1.586-6.514l5.256-13.706.061-.164.165.318h0a20.9,20.9,0,0,1,2.263,8.324,49.113,49.113,0,0,1,.453,6.342,74.6,74.6,0,0,0,.511,7.692S31.2,66.6,31.2,66.99s.907,7.414,1.471,8.478-.565,4.325-.907,4.642.115,8.592.115,8.592-.849,6.51-1.022,7.856c-.036.321-.108.861-.183,1.521l.435-.2.061-.032c5.756-2.743,11.458-5.639,16.948-8.785l.047-8.61s.4-3.764-.054-5.278-.907-4.435-.288-5.224.061-4.432.061-4.432,0-7.692.845-9.6.568-13.981.568-13.981l.223-7.914s1.846-1.746,1.41-10.86c-.047-.971-.119-2.025-.219-3.175-.313-3.439-.63-6.553-.917-9.249-.025-.232-.05-.461-.076-.682-.029-.3-.065-.6-.094-.886-.068-.611-.133-1.2-.2-1.753-.022-.164-.04-.325-.058-.486q-.14-1.2-.263-2.214c-.029-.264-.065-.525-.094-.771-.047-.357-.09-.714-.13-1.046a1.766,1.766,0,0,0-.032-.236,2.982,2.982,0,0,0-.05-.411C48.617.8,48.505,0,48.505,0h-.05L42.767.05,30.352.168h-.363L23.513.229h-.4L20.009.261h-.529L13.005.321h-.392L9.954,11.2,4.526,23.551s-.083,1.353-.273,2.675V26.3a.256.256,0,0,1-.022.129.93.93,0,0,0-.032.2,6.9,6.9,0,0,1-.457,1.746,4.34,4.34,0,0,0-.36,1.232A7.172,7.172,0,0,0,3.3,30.979h0v.075s-.432,1.946-.684,3.6c-.047.318-.09.625-.115.911a5.718,5.718,0,0,0-.05,1.046,5.825,5.825,0,0,1-.04,1.071,2.994,2.994,0,0,1-.047.393c-.176,1.314-.532,2.785-.532,2.785L.81,50.634a.22.22,0,0,1,0,.032v.407a1.124,1.124,0,0,1-.022.257c0,.232-.036.507-.061.828a3.1,3.1,0,0,1-.022.357,1.849,1.849,0,0,1-.022.339v.186a1.665,1.665,0,0,1-.018.282,1.368,1.368,0,0,0,0,.271v.254c-.029.525-.065,1.093-.09,1.668v.55a4.1,4.1,0,0,1-.025.55V60.28a9.665,9.665,0,0,0,.086,1.193c.036.264.065.536.083.814v2.221C.63,65.736.461,66.733.435,66.89h0v.336c0,.089.022.2.032.329v.179h0a.7.7,0,0,0,.022.207c.022.071,0,.068,0,.107,0,.129.022.261.036.4s.029.289.043.439l.022.282c0,.136.029.279.04.418v.143c0,.1.022.189.029.289l.032.439c0,.1.022.2.029.293v.15l.047.579a1.525,1.525,0,0,0,.018.286c0,.15.022.3.036.446s0,.329.025.479a3.044,3.044,0,0,1,.022.436,6.3,6.3,0,0,1,0,1.171,27.184,27.184,0,0,0-.561,2.821c0,.111-.032.221-.043.336a1.2,1.2,0,0,0,0,.2l-.022.268c0,.214-.025.432-.025.643A4.887,4.887,0,0,0,.378,79.91a7.513,7.513,0,0,1,.2,1.186c.029.229.047.471.061.714s.022.507.032.768V83.1C.691,84.792.6,86.413.6,86.413a.386.386,0,0,0,0,.043v.029c.036.714.36,6.346.719,8.238a8.511,8.511,0,0,1,.126,1.014,1.8,1.8,0,0,0,.018.311,16.242,16.242,0,0,1-.255,3.282,38.961,38.961,0,0,1-.7,4.36A3.033,3.033,0,0,0,0,105.643v.029A5.532,5.532,0,0,0,1.867,109.6l.4.4c1.684-.6,3.353-1.218,5.019-1.85.885-.339,1.77-.679,2.651-1.028q3.267-1.282,6.475-2.635Z" transform="translate(321 174)"/><path class="e" d="M19,9.143,10.678,18S0,13.723,1.123,12.3c.436-.563.358-2.342.114-4.306C.844,4.887,0,1.312,0,1.312s18.664-3.026,17.087.114a5.132,5.132,0,0,0-.118,3.721A14.09,14.09,0,0,0,19,9.143Z" transform="translate(348 100)"/><path class="d" d="M16.906,1.367c-.566,1.1-.839,1.2-.485,2.393C14.008,6.262,10.937,9,7.119,9A13.557,13.557,0,0,1,1.224,7.667C.835,4.689,0,1.261,0,1.261S18.467-1.645,16.906,1.367Z" transform="translate(349 100)"/><path class="e" d="M27,12.951A13.28,13.28,0,0,1,13.5,26,13.28,13.28,0,0,1,0,12.951v-.188A13.3,13.3,0,0,1,13.594,0,13.28,13.28,0,0,1,27,12.951Z" transform="translate(342 83)"/><path class="d" d="M38,6.806c-1.805,0-7.749.059-14.407.154H23.51l-2.2.033h-.069c-7.9.115-15.678-1.287-18.8-1.021C-4.2,6.54,4.824.391,4.824.391A60.945,60.945,0,0,0,19.953,1.783l1.91-.092C27.9,1.382,33.963.867,37.133,0,37.354,1.6,37.675,3.923,38,6.806Z" transform="translate(333 177)"/><path class="h" d="M38,6.806c-1.805,0-7.749.056-14.407.154H23.51l-2.2.033h-.069c-7.9.115-15.678-1.287-18.8-1.021C-4.2,6.537,4.824.391,4.824.391A60.847,60.847,0,0,0,19.953,1.78l1.91-.089C27.9,1.382,33.963.863,37.133,0,37.354,1.6,37.675,3.93,38,6.806Z" transform="translate(333 177)"/><path class="d" d="M18.383,2.044,8,6.908,0,69s4.736-2.159,7.444-.792,11.053.115,11.053.115,6.1-.36,6.992.338S37,65.834,37,65.834s1.916-4.3.448-4.976.452-7.365.452-7.365L37,8.7,35.2,2.939,30.354,0,25.393,3.958,23.025,4.3Z" transform="translate(334 111)"/><path class="f" d="M18.383,2.026,8.007,6.89,0,69s4.736-2.159,7.444-.792S18.5,68.32,18.5,68.32s6.1-.338,6.992.338S37,65.83,37,65.83s1.916-4.3.448-4.976S37.9,53.5,37.9,53.5L37,8.7,35.2,2.943,30.354,0,25.393,3.958,23.025,4.3Z" transform="translate(334 110)"/><path class="d" d="M8.05.9s2.993,3.537,2.936,4.269-.169,2.469-.169,2.469L8.577,12.19s-1.242,5.673-1.242,6.852-1.974,11.4-1.974,11.4L2.993,46.162,0,66.777,3.047,72l3.61-3.033L11.448,32.24l1.016-7.245s1.077-13.03,1.077-14.376a45.73,45.73,0,0,0-.621-4.887s.736-3.369,3.783-4.155-.226-.171-.226-.171L14.728,0,13.2.618S8.954-.672,8.05.9Z" transform="translate(344 115)"/><path class="i" d="M8.069.9S11.058,4.437,11,5.166s-.172,2.472-.172,2.472L8.575,12.191s-1.241,5.67-1.241,6.849-1.973,11.4-1.973,11.4L2.989,46.165,0,66.776,3.046,72l3.61-3.033,4.79-36.725L12.461,25s1.076-13.03,1.076-14.381a45.51,45.51,0,0,0-.621-4.884s.718-3.373,3.778-4.159-.222-.168-.222-.168L14.722,0,13.2.618S8.974-.675,8.069.9Z" transform="translate(344 115)"/><path class="d" d="M2.308,0s-.462.34-.576,2.613A44.8,44.8,0,0,1,0,10S6,5.909,9,6.364Z" transform="translate(347 109)"/><path class="f" d="M2.308,0s-.462.343-.576,2.613A44.9,44.9,0,0,1,0,10S6,5.909,9,6.364Z" transform="translate(347 109)"/><path class="d" d="M9.379,0,0,8.16s7.907,4.646,8.938,5.767S11,2.822,11,2.822Z" transform="translate(357 107)"/><path class="f" d="M9.4,0,0,8.16s7.906,4.646,8.937,5.767S11,2.819,11,2.819Z" transform="translate(357 107)"/><path class="d" d="M26.826.085s-1.012-.506-1.967.952A6.4,6.4,0,0,1,22.1,3.176S11.868,4.8,11.474,6.145L6.7,6.423s-1.688.2-1.846,3.768-1.073,3.864-1.073,3.864-1.971,3.476-1.788,5.269a2.918,2.918,0,0,1-1.52,2.691L7.511,40.21s.225,7.511-1.073,10.256S2.726,65.374,2.726,65.374s1.012-.225.955.449-1.238,8.014-1.238,8.014a16.089,16.089,0,0,1-.9,3.921C.984,78.766.926,84.035.926,84.035L0,87.846s2.146,4.763,5.4,4.089,9.164-13.393,9.164-13.393l3.766-13.728L21.257,51.25l.844-9.19L23.45,21.716l1.967-13.45S27.624,1.037,26.826.085Z" transform="translate(323 109)"/><path class="c" d="M26.829.084s-1.013-.5-1.968.955A6.4,6.4,0,0,1,22.1,3.177S11.867,4.8,11.474,6.146l-4.78.282s-1.689.225-1.857,3.753-1.073,3.867-1.073,3.867S1.8,17.522,1.975,19.315A2.916,2.916,0,0,1,.458,22l7.02,18.2S7.7,47.71,6.4,50.454s-3.71,14.9-3.71,14.9,1.013-.225.955.449S2.411,73.82,2.411,73.82a16.08,16.08,0,0,1-.9,3.92C.952,78.749.894,84.016.894,84.016L0,87.844s2.147,4.762,5.4,4.091,9.17-13.394,9.17-13.394l3.767-13.725,2.927-13.543.841-9.188,1.352-20.336L25.423,8.3S27.617,1.039,26.829.084Z" transform="translate(322 109)"/><path class="d" d="M14,9.857,10.724,11.99a40.751,40.751,0,0,1-8.549-.678L.358,10.548,0,10.4l.376.112a7.811,7.811,0,0,0,4.5.153C9.493,9.189,8.982,1.963,8.81.329A1.4,1.4,0,0,0,8.774.02a.09.09,0,0,1,0-.02L8.8.041a1.944,1.944,0,0,0,.211.281,2.311,2.311,0,0,0,.207.207h0l1.627,3.089v.129Z" transform="translate(299 142)"/><path class="c" d="M24.784,0,23.222.44,23,3.586a2.144,2.144,0,0,0-2.344,1.87,7.59,7.59,0,0,1-1.4,3.145s-3.071,2.527-3.238,4.669l-1.9,1.153s-4.41-.989-5.415-2.747c0,0,2.01,14.175-8.707,10.715,0,0,12,5.165,12.559,5.878a7.139,7.139,0,0,0,7.592,1.048,7.951,7.951,0,0,0,4.076-4.5s3.238-4.449,3.348-5.11S30.2,18.275,30.2,18.275L35,6.85Z" transform="translate(300 130)"/><path class="d" d="M1.141,7.429,2.809,0s.732,2.42,1.5,2.982S6.778,4.84,6.778,4.84a14.577,14.577,0,0,0,3.333,1.128c.86,0,5.524,1.181,6.1,1.79s2.875.168,2.875.168,1.9.619,3.567,1.013,2.473,3.1,2.125,4.164a3.206,3.206,0,0,0,.8,3.039,7.1,7.1,0,0,1,1.035,2.864,3.354,3.354,0,0,1,1.957,1.633,11.119,11.119,0,0,1,.4,3.938L20.409,36.391a33.749,33.749,0,0,1-.23,5.571C19.834,42.975,21.385,60.2,21.385,60.2l1.781,29.6A31.7,31.7,0,0,1,20.292,92c-.519.226-1.035-10.468-1.035-10.862S5.974,61.659,5.974,61.659s-1.785-2.814-1.785-3.433-1.668-6.3-1.668-6.3L0,40.974Z" transform="translate(362 106)"/><path class="c" d="M29,23.956c0,.386-.022.644-.022.644l-8.562,11.81h0a33.7,33.7,0,0,1-.227,5.572c-.2.587.238,6.642.644,11.613.289,3.579.563,6.613.563,6.613l.753,12.554L23.172,89.8A32.1,32.1,0,0,1,20.3,92c-.516.225-1.035-10.464-1.035-10.861S5.976,61.664,5.976,61.664s-1.781-2.816-1.781-3.436-1.668-6.3-1.668-6.3L0,40.958,1.148,7.426,2.125,0A15.9,15.9,0,0,0,4.319,2.981c.757.558,2.469,1.857,2.469,1.857a14.553,14.553,0,0,0,3.335,1.127c.863,0,5.519,1.181,6.1,1.789s2.875.168,2.875.168,1.894.619,3.562,1.013,2.472,3.1,2.129,4.162a3.194,3.194,0,0,0,.8,3.038A7.142,7.142,0,0,1,26.625,19a3.364,3.364,0,0,1,1.957,1.632A9.479,9.479,0,0,1,29,23.956Z" transform="translate(363 107)"/><path class="d" d="M8,.824C7.12,1.233,6.237,1.612,5.354,2,2.585,1.082,0,0,0,0A64.917,64.917,0,0,1,8,.824Z" transform="translate(323 280)"/><path class="d" d="M0,0S6.611,1.191,7,2Z" transform="translate(358 252)"/><path class="d" d="M1.582,0S-1.9.864,1.471,2.592,1.582,0,1.582,0Z" transform="translate(331 256)"/><path class="d" d="M0,2C.381,2,6.31-.99,8.375.341A9.575,9.575,0,0,0,13,1.667Z" transform="translate(348 201)"/><path class="d" d="M8,3.129l-.061.562L2.68,17.51S1.833,21.7,1.1,24.08A43.251,43.251,0,0,0,0,29L4.664,0Z" transform="translate(340 206)"/><path class="g" d="M3,5.963,1.145,6H1.087L0,.1C.533.074,1.072.041,1.611,0Z" transform="translate(354 178)"/><path class="e" d="M23,5.193,21.578,6.305,16.84,10.014s-12.862,6.5-16.4.324C-2.688,4.9,11.894,1.019,15.407.172c.476-.114.749-.172.749-.172Z" transform="translate(360 172)"/><path class="d" d="M0,0S2.4,1.109,2.942,2.658,0,0,0,0Z" transform="translate(329 122)"/><path class="d" d="M2,0S-.889,4.855.277,6.732,2,0,2,0Z" transform="translate(319 139)"/><path class="d" d="M3,0S.1.309,0,3Z" transform="translate(382 124)"/><path class="d" d="M0,11C.361,10.659,8.182-.958,10,.064Z" transform="translate(354 159)"/><path class="d" d="M27,13.755A14.131,14.131,0,0,1,25.4,20.3h-.1c-.855-.185-1.3-1.209-1.952-1.854a2.6,2.6,0,0,0-3.063-.441A3.218,3.218,0,0,0,18.782,21c-.433-1.854-.3-3.852-.722-5.721s-1.692-3.763-3.431-3.8c-.75,0-1.623.285-2.165-.293-.328-.349-.393-.9-.639-1.32C10.581,7.8,6.8,8.85,5.256,9.911S1.919,12.662,0,13.57A13.678,13.678,0,0,1,13.594,0,13.691,13.691,0,0,1,27,13.77Z" transform="translate(342 82)"/><path class="j" d="M15.3,16.395c.246.4.311.926.639,1.258.542.548,1.416.265,2.167.279,1.741.028,3.013,1.834,3.435,3.615s.285,3.675.722,5.453a3.025,3.025,0,0,1,1.506-2.848,2.7,2.7,0,0,1,3.063.421c.654.608,1.084,1.583,1.958,1.767s1.683-.629,1.994-1.513a23.465,23.465,0,0,0,.488-2.767c.387-1.735,1.542-3.156,2.167-4.8a8.517,8.517,0,0,0-.058-6.206c-.426-1.06-1.058-1.983-1.492-3.025-.65-1.583-.824-3.368-1.618-4.877A5.917,5.917,0,0,0,23.2.322C21.967.778,20.894,1.658,19.64,2.05c-1.676.527-3.471.131-5.209-.106s-3.659-.258-5.057.859C7.767,4.089,7.326,6.507,5.816,7.92c-.636.594-1.423.972-2.092,1.52a2.782,2.782,0,0,0-1.17,2.255c.1,1.152,1.253,2.2.827,3.262a2.583,2.583,0,0,1-.632.813A11.61,11.61,0,0,0,0,20.346c3.042.929,6.329-2.35,8.709-3.887C10.274,15.423,14.059,14.423,15.3,16.395Z" transform="translate(338 75)"/><path class="d" d="M7,5.766,5.729,7C4.607,4.8,0,.416,0,.416L.2.191C.624.065.868,0,.868,0Z" transform="translate(376 172)"/><path class="f" d="M9,5.112s-.521,1.25-1.056,2.333S6.836,9.506,6.792,8.709C6.732,7.134,0,1.854,0,1.854L.912,1l1.06-1Z" transform="translate(376 170)"/><path class="d" d="M9.234,6.544,10,19C8.187,16.3,3.2,9.392,0,9.615L7.77,1.094A9.624,9.624,0,0,0,8.662,0C8.956,3.544,9.234,6.544,9.234,6.544Z" transform="translate(376 160)"/><path class="d" d="M8,4.807S7.484,5.982,6.953,7C4.948,4.474,2.2,1.495,0,.937L1.05,0Z" transform="translate(377 171)"/><path class="c" d="M13.985,0l2.03,1.591s3.382.058,3.719,2.892,3.44,4.15,3.44,4.15,2.313,2.328,2.313,3.409,1.747,3.011,1.747,3.181,1.693,3.637,1.467,4.262,1.793,3.355,1.184,4.378A25.173,25.173,0,0,0,28.533,26.7s-2.651,5.115-4.006,6.081-7.554,9.092-7.554,9.092S10.319,49.607,10.319,52c0,0-6.485-10.914-10.319-10.628l7.5-8.694A5.83,5.83,0,0,0,8.852,30.4c.057-.853,3.608-4.776,5.3-4.945,0,0,.28-2.332-.452-2.386S12.349,21.2,12.349,21.2s-4.964-5.911-5.021-9.663S13.985,0,13.985,0Z" transform="translate(376 129)"/><path class="d" d="M4,0S-.9,3.662.148,4.846,4,0,4,0Z" transform="translate(389 135)"/><path class="d" d="M0,2S9.081-2.5,10,2Z" transform="translate(393 148)"/><path class="d" d="M2,0S2,12.675.438,13.927,2,0,2,0Z" transform="translate(329 134)"/><path class="d" d="M0,0,1.9,5S2.655.094,0,0Z" transform="translate(382 138)"/><g class="k" transform="translate(338 86)"><path d="M.993,3.188C1.4,2.143.327,1.119.184,0A2.105,2.105,0,0,0,.005,1.006c.072.846.716,1.633.87,2.415A1.411,1.411,0,0,0,.993,3.188Z" transform="translate(2.787 0.347)"/><path d="M22.193,11.669c-.4-1.771-.286-3.616-.694-5.369S19.82,2.7,18.1,2.673c-.744,0-1.611.269-2.147-.28-.326-.333-.39-.857-.633-1.261C14.083-.84,10.332.158,8.8,1.171,6.5,2.683,3.336,5.85.383,5.134.243,5.471.111,5.811,0,6.161c3.013.931,6.27-2.355,8.629-3.9,1.535-1.009,5.283-2.012,6.517-.035.243.4.308.928.633,1.261.537.549,1.4.266,2.147.28,1.725.028,2.985,1.838,3.4,3.623s.283,3.683.716,5.465a3,3,0,0,1,.147-1.19Z" transform="translate(0.243 3.858)"/><path d="M8.444.97c-.308.885-1.109,1.7-1.976,1.516S5.18,1.331,4.532.715A2.663,2.663,0,0,0,1.494.3,3.021,3.021,0,0,0,0,2.992,2.914,2.914,0,0,1,1.326,1.381,2.652,2.652,0,0,1,4.361,1.8c.648.609,1.074,1.587,1.94,1.771s1.668-.63,1.976-1.516a7.72,7.72,0,0,0,.308-1.6A4.938,4.938,0,0,1,8.444.97Z" transform="translate(22.453 12.467)"/><path d="M2.312,1.232C1.679,2.883.523,4.307.165,6.042.086,6.4.043,6.75,0,7.1c.383-1.728,1.525-3.149,2.147-4.8A8.327,8.327,0,0,0,2.666,0a8,8,0,0,1-.354,1.232Z" transform="translate(31.23 4.622)"/></g><ellipse class="l" cx="0.14" cy="0.14" rx="0.14" ry="0.14" transform="translate(290.86 131.86)"/><path class="i" d="M0,1.664S3.923-1.191,8,.578C8,.578,6.859,3.032,1.794,3Z" transform="translate(178 209)"/><path class="i" d="M.163,0S-.874,4.246,2.281,7c0,0,1.765-1.8-.236-5.979Z" transform="translate(178 212)"/><path class="i" d="M0,3.37S.144-.874,9,.163A4.6,4.6,0,0,1,6.093,4.316C3.046,5.737,1.593,4.708,0,3.37Z" transform="translate(173 203)"/><path class="i" d="M1.5,0s-3.35,1.412-.038,10c0,0,2.233-.68,2.5-4.166S3.012,1.213,1.5,0Z" transform="translate(170 206)"/><path class="i" d="M.015,5.632S-.706-.278,7.971.01C7.971.01,8.8,5.354,1.6,7Z" transform="translate(167 195)"/><path class="i" d="M0,5.428S.952-1.437,10,.274c0,0,.272,5.909-8.471,6.726Z" transform="translate(160 189)"/><path class="i" d="M0,5.718S1.828-1.52,11,.291C11,.291,9.086,6.8.646,7Z" transform="translate(156 180)"/><path class="i" d="M0,5.775S1.847-1.554,11,.3C11,.3,8.251,7.3.654,6.99Z" transform="translate(151 173)"/><path class="i" d="M0,7.695S1.3-1.49,10,.21C10,.21,7.835,8.609.7,9Z" transform="translate(148 165)"/><path class="i" d="M0,7.643S1.559-2.069,10,.4C10,.4,7.066,9.639.641,8.965Z" transform="translate(145 156)"/><path class="i" d="M0,10.035S2.641,0,9,0C9,0,6.309,10.6.6,12Z" transform="translate(143 146)"/><path class="i" d="M0,10.324S2.822-.612,8,.027C8,.027,6.078,8.377.24,12Z" transform="translate(142 138)"/><path class="i" d="M0,9.667S2.771.548,8,0C8,0,6.222,8.935.215,12Z" transform="translate(141 129)"/><path class="i" d="M0,10.393S3.545.361,7,0C7,0,5.658,9.792.4,12Z" transform="translate(140 120)"/><path class="i" d="M0,11.253S2.221.974,6,0C6,0,5.835,8.349.418,12Z" transform="translate(139 111)"/><path class="i" d="M0,9.959S2.229,1.4,5,0C5,0,4.813,9.992.732,12Z" transform="translate(138 102)"/><path class="i" d="M1.051,13.619,0,0S5.584,10.1,1.516,16Z" transform="translate(136 91)"/><path class="i" d="M4.892,10.678S.887.539,0,0C0,0,7.337,6.388,6.988,15Z" transform="translate(127 80)"/><path class="i" d="M5.566.008S-.475-.618.03,8.982c0,0,5.467.746,6.97-7.258Z" transform="translate(160 201)"/><path class="i" d="M6.483,0S-.867.273.085,9.974c0,0,6.209.916,7.915-8.209Z" transform="translate(154 193)"/><path class="i" d="M11.327.542S4.172-2.665,0,6.525c0,0,6.6,2.647,12-4.554Z" transform="translate(144 187)"/><path class="i" d="M11.35.58S3.946-2.518,0,5.605c0,0,7.672,2.2,12-3.785Z" transform="translate(139 178)"/><path class="i" d="M11.649,2.753S4.932-3.805,0,3.322c0,0,6.817,5.34,12,.937Z" transform="translate(137 169)"/><path class="i" d="M11.716,2.676S4.908-3.841,0,3.464c0,0,7.566,5.264,12,.623Z" transform="translate(133 161)"/><path class="i" d="M11.985,6.107S6.269-1.676,0,.331c0,0,5.934,8.248,12,7.637Z" transform="translate(132 149)"/><path class="i" d="M10.792,8.293S5.011-1.7,0,.254C0,.254,4.185,7.944,11,10Z" transform="translate(131 140)"/><path class="i" d="M11.351,6.715S5.309-1.045,0,.119C0,.119,5,8.025,12,9Z" transform="translate(130 132)"/><path class="i" d="M8,9.382S3.434-.045,0,0C0,0,2.377,9.45,7.773,11Z" transform="translate(132 121)"/><path class="i" d="M8,9.16S3.3-.119,0,0C0,0,2.526,8,7.882,10Z" transform="translate(132 113)"/><path class="i" d="M7,8.819S3.05.8,0,0C0,0,2.194,9.87,6.682,11Z" transform="translate(131 104)"/><path class="i" d="M8.708,11.752,0,0S2.583,11.81,10,14Z" transform="translate(127 93)"/><path class="i" d="M9.974,7.043S.369,1.015,0,0C0,0,5.12,8.762,14,10Z" transform="translate(120 85)"/><path class="i" d="M13.765,10S2.719-.116,0,0C0,0,8.8.069,14,9.427Z" transform="translate(116 79)"/><path class="m" d="M9,25.934,8.636,26C6.2,10.484,3.142,1.378,0,.365L.106,0C3.427,1.065,6.5,10.039,9,25.934Z" transform="translate(129 88)"/><path class="m" d="M5,37.928,4.4,38c-.183-1.443-.337-2.909-.464-4.374C2.863,20.873,1.512,9.177,0,.426L.329,0c1.5,8.766,3.132,20.808,4.214,33.561C4.663,35.037,4.82,36.506,5,37.928Z" transform="translate(138 112)"/><path class="m" d="M47.718,69c-.1-.043-10.469-4.175-21.462-14.562a83.613,83.613,0,0,1-16.08-20.9C4.905,23.832,1.454,11.779,0,0L.615.259c3.256,26.435,16.112,44.1,26.151,53.6C37.65,64.15,47.9,68.238,48,68.284Z" transform="translate(142 149)"/><g class="n" transform="translate(167 62)"><path class="i" d="M0,.4S4.687-1.125,8.128,1.767c0,0-1.848,1.989-6.779.435Z" transform="translate(29.819 144.523)"/><path class="i" d="M1.176,0S-1.28,4.229.907,8.135c0,0,2.344-1.392,1.786-6.473Z" transform="translate(28.114 144.934)"/><path class="i" d="M0,1.731s1.356-3.794,9.841-.147c0,0-.641,2.517-4.075,2.877S1.2,3.425,0,1.731Z" transform="translate(25.521 137.514)"/><path class="i" d="M3.162,0S-.909.191.188,9.275A4.377,4.377,0,0,0,4.135,6.247C5.465,3.1,4.456,1.6,3.162,0Z" transform="translate(21.827 139.09)"/><path class="i" d="M0,4.259S1.239-2.243,10.111.821c0,0-.937,5.934-8.93,5.394Z" transform="translate(21.472 127.998)"/><path class="i" d="M0,3.886S3.218-3,11.664,1.562C11.664,1.562,9.991,7.809,1,6Z" transform="translate(17.459 119.579)"/><path class="i" d="M0,3.576S4.009-2.916,12.393,1.594c0,0-3.864,5.754-12.152,3.438Z" transform="translate(15.123 111.29)"/><path class="i" d="M0,3.8S4.031-2.952,12.083,1.544C12.083,1.544,7.3,7.7.23,5.2Z" transform="translate(12.961 102.698)"/><path class="i" d="M0,5.509S4.009-3,11.532,1.129c0,0-4.567,7.491-11.3,5.837Z" transform="translate(12.17 93.381)"/><path class="i" d="M0,5.169s4.337-8.494,11.777-3.7c0,0-5.529,7.646-11.547,5.1Z" transform="translate(11.941 84.724)"/><path class="i" d="M0,6.568S5.438-1.632,11.685.292c0,0-5.646,8.689-11.664,8.221Z" transform="translate(12.509 75.158)"/><path class="i" d="M.281,8.077S6.477-1.889,11.39.319c0,0-4.509,7.674-11.39,9.491Z" transform="translate(13.315 65.82)"/><path class="i" d="M.532,7.3S6.036-.909,11.2.083c0,0-4.494,8.325-11.2,9.595Z" transform="translate(14.98 57.407)"/><path class="i" d="M.069,7.375S6.327-.648,9.735.042c0,0-4.079,8.451-9.735,8.9Z" transform="translate(17.127 48.759)"/><path class="i" d="M0,9.11S5.012-.079,8.584,0c0,0-2.653,7.912-8.449,9.933Z" transform="translate(18.92 39.077)"/><path class="i" d="M0,7.635S4.585.471,7.625,0c0,0-3.062,9.073-7.519,9.71Z" transform="translate(20.47 29.964)"/><path class="i" d="M.292,13.914,3.572,0S5.784,11.749,0,16.446Z" transform="translate(20.973 16.669)"/><path class="i" d="M1.615,11.832S.725.795,0,0C0,0,5.369,8.437,2.369,16.651Z" transform="translate(19.485 4.01)"/><path class="i" d="M8.449.331S2.253-2.212,0,6.8c0,0,5.544,2.478,9.477-4.42Z" transform="translate(12.79 131.804)"/><path class="i" d="M9.313.18S1.9-1.819,0,7.5c0,0,5.923,2.758,10.308-5.2Z" transform="translate(7.909 122.96)"/><path class="i" d="M12.393,1.7S6.513-3.216,0,3.678c0,0,5.507,4.254,12.629-.525Z" transform="translate(2.497 113.744)"/><path class="i" d="M12.185,1.874S6.2-3.28,0,3.506c0,0,6.513,4.352,12.414-.234Z" transform="translate(0.605 104.655)"/><path class="i" d="M11.948,4.7S7.024-3.32,0,1.592c0,0,5.369,6.955,11.871,4.582Z" transform="translate(0.255 94.407)"/><path class="i" d="M12.028,4.663S7.1-3.511,0,1.786c0,0,6.058,7.247,11.882,4.29Z" transform="translate(0.35 85.115)"/><path class="i" d="M9.5,9.191S6.543-.16,0,0C0,0,3.022,9.885,8.93,11.053Z" transform="translate(3.761 72.46)"/><path class="i" d="M7.807,11.014S5.376-.43,0,.013c0,0,1.618,8.728,7.479,12.727Z" transform="translate(5.952 62.872)"/><path class="i" d="M8.416,9.71S5.256.36,0,0C0,0,2.158,9.192,8.3,12.13Z" transform="translate(7.589 54.577)"/><path class="i" d="M5.044,10.958S3.349.975.01,0c0,0-.43,9.35,4.348,12.378Z" transform="translate(12.765 45.148)"/><path class="i" d="M5.569,11.148S3.444.928,0,0C0,0,.241,8.318,5.2,11.907Z" transform="translate(13.588 36.887)"/><path class="i" d="M4.072,9.965S2.676,1.6.063,0c0,0-.769,9.534,3.087,11.839Z" transform="translate(16.981 28.382)"/><path class="i" d="M4.6,13.576.084,0S-1.064,11.9,5.118,16.072Z" transform="translate(16.329 16.64)"/><path class="i" d="M7.29,9.516S.033,1.065,0,0C0,0,2.22,9.71,10.206,13.457Z" transform="translate(11.798 6.786)"/><path class="i" d="M10.206,13.126S2.628.687,0,0A17.151,17.151,0,0,1,10.57,12.673Z" transform="translate(9.094 0.302)"/><path class="m" d="M1.516,27.2l-.386-.054C3.273,11.778,2.872,2.248,0,.316L.222,0C3.266,2.046,3.714,11.447,1.516,27.2Z" transform="translate(19.041 12.562)"/><path class="m" d="M.576,37.434,0,37.329c.262-1.421.558-2.877.886-4.294C3.714,20.6,5.989,9.081,7.195.309L7.629,0C6.4,8.771,4.29,20.693,1.454,33.147,1.134,34.585.835,36.02.576,37.434Z" transform="translate(13.085 38.606)"/><path class="m" d="M26.889,80c-.087-.068-8.813-7.085-16.252-20.251A82.759,82.759,0,0,1,1.456,35.035C-.688,24.2-.367,11.659,1.78,0l.514.428c-4.829,26.21,2.187,46.881,8.992,58.914C18.652,72.39,27.276,79.331,27.363,79.4Z" transform="translate(11.506 74.803)"/></g><path class="o" d="M86.8,71.949a13.432,13.432,0,0,1-2.6.786,25.835,25.835,0,0,1-4.716.451c.046.422.082.815.118,1.172.086.98.135,1.655.135,1.655L78.064,75.9l-13.788-.952-8.063-1.208a15.169,15.169,0,0,0,1.265,1.5,6.68,6.68,0,0,0,1.611,1.265s7.275,5.959,8.534,6.013c.178,0,.235.18.207.465,3.062,0,12.583.451,9.942,5.811a4.246,4.246,0,0,1-2.164,2.13c-3.055,1.309-7.664-1.045-10.038-2.491-.232.458-.453.883-.649,1.247-.4.768-.684,1.276-.684,1.276L64,90.784l-12.234-8.81-2.681-2.3a9.259,9.259,0,0,1-2.321-.407h0l-.356-.115a.7.7,0,0,0-.039.1,5.093,5.093,0,0,0-.217.865v.13q-.075.5-.1,1.013c0,.231-.018.476-.018.721-.021,4.91,1.925,12.8,1.925,12.8S53,107.788,51.212,110.79h0a1.346,1.346,0,0,1-.356.389,3.592,3.592,0,0,0-1.2,2.26c-.667,3.187.5,8.049.5,8.049s-.107.18-.289.461a13.93,13.93,0,0,1-1.326,1.8c-.075.087-.153.177-.235.26a6.23,6.23,0,0,1-.713.649c.046.141.1.285.146.44s.114.4.164.613a8.881,8.881,0,0,1-.446,5.3,14.747,14.747,0,0,0-.9,3.81h0A29.473,29.473,0,0,0,46.738,142c-.053-.029-.1-.058-.153-.083q-5.914-3.125-11.66-6.528c-1.123-.656-2.239-1.327-3.347-2q-2.046-1.247-4.074-2.523-2.673-1.687-5.347-3.457l-.834-.562-.321-.22c-.453-.306-.9-.613-1.347-.923a69.291,69.291,0,0,1-5.04-7.57c-.253-.458-.481-.894-.67-1.294v-.022l-.121-.263-.5-.18h0c-.945-.335-1.543-.57-1.543-.57h0a17.873,17.873,0,0,0,.62-4.938A15.044,15.044,0,0,0,7.824,99.828C2.42,94.663,1.675,89.562,1.6,87.6v-.36a4.567,4.567,0,0,1,.021-.494l.413-.4C.984,86.138,0,86.04,0,86.04s3.586-13.121,9.624-17.5c2.994-2.163,5.486-5.768,7.247-8.86a134.372,134.372,0,0,1,10.793-16l1.087-1.388.317-.407.068-.083.086-.115q-.221-.339-.449-.67l-.1-.148a3.7,3.7,0,0,1-.816-2.3v-.209a2.8,2.8,0,0,1,.078-.425.408.408,0,0,0,.043.065c.51-1.5,2.474-2.163,3.921-2.992,3.411-1.939,4.866-6.182,5.6-10.129.567-3.071,1.037-6.514,3.39-8.486,1.519-1.269,3.565-1.687,5.1-2.945a9.654,9.654,0,0,0,2.167-2.815c.356-.613.663-1.247.995-1.86A18.7,18.7,0,0,1,55.3,1.747,10.132,10.132,0,0,1,64.191.558c1.116.429,2.139,1.081,3.208,1.561a12.4,12.4,0,0,0,2.039.642c2.178.515,4.47.649,6.516,1.568,3.326,1.492,5.489,4.794,7.464,7.93a37.905,37.905,0,0,1,3.543,6.38V18.39a9.24,9.24,0,0,1,.713,3.316,5.1,5.1,0,0,1-.153,1.442,4.116,4.116,0,0,1-2.217,2.57l-.168.083a7.089,7.089,0,0,1-.692.314c-.036.2-.075.4-.118.595-.018.083-.039.169-.061.252-.046.2-.1.4-.157.6a13.885,13.885,0,0,1-4.277,6.611,14.335,14.335,0,0,1-4.784,2.74c-.125.043-.257.076-.381.115a3.118,3.118,0,0,1-.449.84,2.411,2.411,0,0,1-.485.472,2.933,2.933,0,0,1-.356.209.475.475,0,0,1-.1.047A4.622,4.622,0,0,1,69,37.849c-.064-.043-.125-.094-.185-.141a4.183,4.183,0,0,1-.068.645c-.036.223-.061.36-.1.548s-.053.278-.078.411-.043.223-.064.328l-.043.184a28.5,28.5,0,0,1-3.971,9.769,13.92,13.92,0,0,1-.9,1.229l-.884,1.363v.184a15.649,15.649,0,0,1-2.292,8.576,25.027,25.027,0,0,1-1.586,2.412l.2.119c2,1.15,5.931,3.194,8.419,3.021,0,0,9.41,1.229,10.5.613.15-.087.3.032.431.288,1.522-.937,5.022-2.923,7.785-3.187,1.932-.187,3.5.465,3.8,2.884S88.814,71.073,86.8,71.949Z" transform="translate(32 111)"/><path class="p" d="M19.957,8.408a7.871,7.871,0,0,1,.5,6.792,17.555,17.555,0,0,0-.849,6.8c-1.092-.643-2.177-1.3-3.256-1.96q-1.99-1.222-3.963-2.473-2.6-1.653-5.2-3.387l-.811-.551-.312-.215a.664.664,0,0,0-.1-.141,64.256,64.256,0,0,1-4.781-7.46C.891,5.261.638,4.752.437,4.286V4.262a3.018,3.018,0,0,1-.406-1.7A3.47,3.47,0,0,1,1.713.443c2-1.06,5.2-.081,8.37,1.476A57.688,57.688,0,0,1,17.9,6.769l.281.208L18.206,7c1.04.752,1.643,1.25,1.643,1.25A1.688,1.688,0,0,1,19.957,8.408Z" transform="translate(47 224)"/><path class="q" d="M19.954,8.4a7.861,7.861,0,0,1,.5,6.8A17.541,17.541,0,0,0,19.6,22q-1.638-.971-3.258-1.963-2-1.222-3.966-2.472c-1.735-1.105-3.47-2.235-5.187-3.39l-.812-.551-.312-.215a.766.766,0,0,0-.1-.141A63.586,63.586,0,0,1,1.183,5.81C.892,5.259.638,4.751.437,4.285V4.264a3.025,3.025,0,0,1-.406-1.7A3.481,3.481,0,0,1,1.714.443c2-1.059,5.2-.081,8.376,1.476A57.741,57.741,0,0,1,17.91,6.767l.281.208L18.219,7c1.041.752,1.645,1.25,1.645,1.25S19.892,8.3,19.954,8.4Z" transform="translate(47 223)"/><path class="p" d="M24.858,15.788a8.8,8.8,0,0,1-.516,1.813,14.237,14.237,0,0,0-.831,3.264h0A28.587,28.587,0,0,0,23.54,28q-6.071-3.144-11.969-6.568c-1.153-.66-2.3-1.335-3.436-2.013-.256-1.929-.622-3.627-1.036-4.044a72.167,72.167,0,0,1-5.555-8.4C1.3,6.536,1.08,6.116.879,5.717V5.7c-.077-.16-.15-.312-.22-.464A4.114,4.114,0,0,1,.034,2.968,4.185,4.185,0,0,1,1.541.813c3.246-2.35,9.993.831,15.175,3.99l.128.076c.981.606,1.91,1.2,2.744,1.763l.487.326c2.144,1.451,3.568,2.579,3.568,2.579a7.693,7.693,0,0,1,.845,1.734,9.128,9.128,0,0,1,.3,1.052,8.69,8.69,0,0,1,.066,3.456Z" transform="translate(56 225)"/><path class="d" d="M1.262,5.706c2.645.879,6.549,2.045,8.674,2.076a4.317,4.317,0,0,0,.659-.031h0a79.906,79.906,0,0,1,10.336.481c1.7.142,3.329.291,4.679.422L29,9V7.755c-.942-.616-2.037-1.3-3.209-1.993C20.621,2.724,13.829-.379,10.576,1.88,6-.223,1.346-1.234.025,2.51-.128,3,.429,4.236,1.262,5.706Z" transform="translate(47 224)"/><path class="r" d="M.007,4.088C.077,6,.785,10.976,5.859,16c6.473,6.4,3.713,15.6,3.713,15.6s7.714,3.071,11.041,3.153a3.905,3.905,0,0,0,.635-.032c2-.281,9.926.462,14.484.928L39,36V8.8L3.257,0,.021,3.27A6.486,6.486,0,0,0,.007,4.088Z" transform="translate(36 195)"/><g class="k" transform="translate(35 196)"><path d="M14.389.982l.591.06v.289l-3.3-.353C8.379.647,3.331.174,0,.037,2.3-.168,9.933.534,14.389.982Z" transform="translate(24.676 34.492)"/><path d="M.021,3.247,3.289,0,5.469.526,2.747,3.247a6.334,6.334,0,0,0,0,.812c.071,1.9.786,6.836,5.908,11.827C15.19,22.239,12.4,31.369,12.4,31.369s6.442,2.524,10.135,3.042a8.78,8.78,0,0,0-1.062.06,4.008,4.008,0,0,1-.641.032c-3.359-.085-11.147-3.134-11.147-3.134s2.786-9.131-3.749-15.484C.793,10.9.078,5.961.007,4.069A6.334,6.334,0,0,1,.021,3.247Z" transform="translate(0.283 0.081)"/></g><path class="p" d="M0,3.706s11.149-7.791,11.963-.78S0,8.953,0,8.953Z" transform="translate(108 176)"/><path class="s" d="M8.027,0s5.95,3.922,9.244,3.69c0,0,8.994,1.205,10.04.6S29,13,29,13L14.22,11.955,4.74,10.511S0,7.623,0,5.134,8.027,0,8.027,0Z" transform="translate(81 175)"/><path class="i" d="M8.027,0s5.95,3.922,9.244,3.69c0,0,8.994,1.205,10.04.6S29,13,29,13L14.22,11.955,4.74,10.511S0,7.623,0,5.134,8.027,0,8.027,0Z" transform="translate(81 175)"/><path class="p" d="M2.839.012s13.8-.543,10.71,5.572S0,4.275,0,4.275Z" transform="translate(95 195)"/><path class="r" d="M0,21S11.455,12.9,9.845,3.028,0,10.572,0,10.572Z" transform="translate(85 161)"/><path class="p" d="M0,13.5A13.5,13.5,0,0,0,8.437,26a12.121,12.121,0,0,0,1.737.576,13.72,13.72,0,0,0,1.916.351c.464.046.932.07,1.406.07a13.315,13.315,0,0,0,4.433-.769A13.49,13.49,0,1,0,0,13.5Z" transform="translate(88 123)"/><path class="d" d="M.007,4.111c1.219.225,2.726.64,2.726,1.276,0,1.072,17.016,6.867,17.016,6.867s-.638,1.5,1.063,4.075S36.35,33.705,36.35,33.705l-.046.436-.177,1.705L35.283,44S40.6,42.07,42.3,42.284a2.308,2.308,0,0,0,1.7-.8,8.26,8.26,0,0,0-1.11-2.742s-1.379-1.094-3.46-2.542V8.851L3.293,0,.021,3.289A6.488,6.488,0,0,0,.007,4.111Z" transform="translate(36 195)"/><path class="i" d="M0,55.914s4.26.425,4.26,1.5S21.3,64.276,21.3,64.276s-.639,1.5,1.065,4.072,15.56,17.364,15.56,17.364L36.861,96s5.325-1.929,7.029-1.715c.763.1,1.6-.614,2.3-1.429a14.961,14.961,0,0,0,1.537-2.2s-1.921-8.151.639-10.08S45.6,64.5,45.6,64.5s-2.411-10.059-1.7-14.374a5.274,5.274,0,0,1,.206-.847.257.257,0,0,1,.032-.1C45.655,45.059,62,10.477,62,10.477a24.764,24.764,0,0,0-.206-2.933c-.032-.271-.075-.554-.128-.836a14.437,14.437,0,0,0-.33-1.525c-.092-.329-.192-.643-.309-.943-.5-1.307-1.278-2.311-2.435-2.336A7.061,7.061,0,0,0,54.332.1c-2.2-.289-5.325,0-9.585,1.807-10.011,4.286-12.355,4.5-12.355,4.5l-5.034,6.633L26.321,14.4A131.276,131.276,0,0,0,16.057,30.081c-1.676,3.029-4.047,6.562-6.891,8.684C3.412,43.055,0,55.914,0,55.914Z" transform="translate(35 142)"/><path class="d" d="M20,0S5.587,3.406,0,12Z" transform="translate(52 173)"/><path class="d" d="M2,0S-.593,18.538.126,19.934,2,0,2,0Z" transform="translate(65 188)"/><path class="d" d="M.323,4.527C1.308,5.878,5.3,16.306,5.3,16.306L4.145,33.815,3.133,44s5.059-1.91,6.682-1.7c.722.1,1.525-.6,2.186-1.415C10.948,34.922,8.7,22.442,8.29,22.2c-.536-.318-3.268-10.348-3.413-13.134S.927,0,.927,0-.665,3.176.323,4.527Z" transform="translate(68 194)"/><path class="d" d="M.071,33.727c.268.8.695,5.429.695,5.429.3,4.084,3.5,5.418,5.486,5.844a5.062,5.062,0,0,1,.213-.841C7.788,40.543,25,5.618,25,5.618A22.174,22.174,0,0,0,24.312.359c-3.747-1.064-9.681.575-9.681.575C12.918.718,7.325,11.451,7.325,11.451S3.6,19.673,3.189,20.79s0,2.959-.165,3.6S1.115,25.58.868,26.464s-.085,2.629-.25,2.949S-.216,32.929.071,33.727Z" transform="translate(72 147)"/><path class="i" d="M.065,34.213c.259.81.662,5.508.662,5.508a6.082,6.082,0,0,0,4.2,5.626,8.653,8.653,0,0,0,2.522.518l2.536,2.261L21.69,57s4.364-8.279,3.18-8.333-8.011-5.94-8.011-5.94c-2.1-1.145-4.182-4.975-5.152-6.94a5.734,5.734,0,0,0,.126-.72c.424-3.668,9.251-17.711,9.251-17.711S24.5,13.227,25.827,5.577c.039-.173.063-.36.095-.536a6.029,6.029,0,0,0,.07-.72C26.149,1.38,24.069.311,21.6.055h0a17.325,17.325,0,0,0-3.853.122A27.086,27.086,0,0,0,13.96.941C12.909.8,10.3,5.318,8.587,8.518h0C7.666,10.253,7,11.61,7,11.61s-3.569,8.344-3.969,9.478,0,3-.158,3.65S1.06,25.948.828,26.845.744,29.512.587,29.836-.2,33.4.065,34.213Z" transform="translate(74 146)"/><path class="d" d="M0,38.09c2.288,2.3,6.021,2.312,9,1.142s5.512-3.305,8.28-4.949c1.8-1.06,3.7-1.955,5.465-3.061h0c.26-.166.513-.332.758-.5,2.043-1.414,3.808-3.227,5.92-4.525A9.347,9.347,0,0,1,34.182,24.7a5.486,5.486,0,0,1,2.27.467,2.957,2.957,0,0,1,.361.184,9.846,9.846,0,0,1,1.913,1.414c.6.527,1.169,1.089,1.8,1.577.04-.17.065-.353.1-.527a5.65,5.65,0,0,0,.072-.707c.476.046.957.071,1.444.071A13.921,13.921,0,0,0,46.7,26.39a.975.975,0,0,1,.032-.173c.52-2.672,1.444-5.5,3.653-7.006,1.274-.873,3.31-1.227,5.071-1.891A13.438,13.438,0,0,0,49.717,2.209a14.1,14.1,0,0,0-16.437.925A13.39,13.39,0,0,0,29.342,18.79c-2.238-.286-5.414,0-9.746,1.789C9.417,24.82,7.035,25.032,7.035,25.032L1.946,31.607A5.58,5.58,0,0,1,3.18,34.216C3.3,36,1.534,37.238,0,38.09Z" transform="translate(60 124)"/><path class="t" d="M49.618,27.829c-2.164,1.534-3.084,4.415-3.6,7.133a5.659,5.659,0,0,1-.824,2.42c-1.148,1.509-3.457,1.08-4.957,0s-2.679-2.722-4.353-3.489c-2.224-1.015-4.836-.274-6.915,1.048s-3.82,3.169-5.831,4.605c-1.944,1.39-4.111,2.38-6.136,3.63-2.722,1.682-5.209,3.853-8.148,5.041S2.249,49.406,0,47.058c1.51-.85,3.244-2.106,3.127-3.925S.917,39.95,1.059,38.092s2.306-2.6,3.859-3.514c3.251-1.916,4.619-6.121,5.33-10.01.54-3.036.984-6.431,3.226-8.379,1.443-1.257,3.4-1.667,4.854-2.909,1.379-1.181,2.132-2.971,3.013-4.616A18.272,18.272,0,0,1,27.2,1.723,9.348,9.348,0,0,1,35.661.553c1.066.421,2.018,1.08,3.063,1.538,2.594,1.138,5.568.987,8.141,2.182,3.166,1.476,5.223,4.739,7.107,7.835,1.61,2.647,4.758,7.331,3.877,10.752C56.948,26.35,51.967,26.162,49.618,27.829Z" transform="translate(60 113)"/><g class="k" transform="translate(60 132)"><path d="M.007.408A2.14,2.14,0,0,1,.081,0,6.228,6.228,0,0,1,1.428,2.791a2.379,2.379,0,0,1-.06.715C.735,2.5-.082,1.563.007.408Z" transform="translate(1.111 18.998)"/><path d="M8.194,26.41c2.925-1.158,5.4-3.262,8.109-4.884,2.016-1.21,4.173-2.17,6.108-3.516,2-1.4,3.735-3.185,5.8-4.462s4.668-2,6.882-1.015c1.666.743,2.829,2.316,4.332,3.38s3.791,1.479,4.934.017a5.326,5.326,0,0,0,.82-2.341c.509-2.637,1.415-5.428,3.579-6.914,2.341-1.612,7.3-1.43,8.194-4.831A5.163,5.163,0,0,0,57.073,0,7.327,7.327,0,0,1,57.6,4.357c-.9,3.4-5.857,3.22-8.2,4.831-2.15,1.486-3.07,4.277-3.579,6.914A5.351,5.351,0,0,1,45,18.443c-1.146,1.462-3.445,1.047-4.951-.017s-2.667-2.637-4.332-3.38c-2.214-.984-4.813-.262-6.882,1.015s-3.8,3.07-5.8,4.462c-1.935,1.35-4.092,2.306-6.108,3.516-2.709,1.633-5.185,3.733-8.109,4.884S2.239,30.07,0,27.8a11.016,11.016,0,0,0,1.641-1.074A9.549,9.549,0,0,0,8.194,26.41Z" transform="translate(0.05 0.3)"/></g><path class="u" d="M184.74,17.1,170.084,2.344a7.774,7.774,0,0,0-11.052-.075L67,93.65,28.093,54.378A7.752,7.752,0,0,0,17.119,54.3L2.307,68.976a7.883,7.883,0,0,0-.075,11.068l59.093,59.644a7.856,7.856,0,0,0,11.052.079l112.281-111.6A7.8,7.8,0,0,0,184.74,17.1Z" transform="translate(116 106)"/><g class="v" transform="translate(269 241)"><path class="i" d="M10.352.015S-1.247-.667.111,7.27A1.924,1.924,0,0,0,1.142,9.307s0-.589,1.187-.389a5.359,5.359,0,0,0,1.263.059,2.639,2.639,0,0,0,1.54-.619h0S8.391,7.044,9.662,1.837c0,0,.937-1.133.9-1.426L8.6,1.229a3.341,3.341,0,0,1,.144,2.522s-.064-2.474-.44-2.415c-.076,0-1.017.478-1.017.478s1.138,2.4.281,4.148c0,0,.33-2.963-.641-3.974l-1.377.785s1.343,2.481.432,4.5c0,0,.235-3.1-.724-4.311l-1.248.948s1.263,2.444.493,4.126c0,0-.1-3.615-.759-3.889a7.471,7.471,0,0,0-1.259,1.33s.865,1.774.33,2.711c0,0-.33-2.411-.6-2.419a7.9,7.9,0,0,0-1.2,2.685,5.692,5.692,0,0,1,.937-2.841,3.312,3.312,0,0,0-1.665.844s.167-1.111,1.934-1.23A7.518,7.518,0,0,1,3.361,3.952,7.292,7.292,0,0,0,.539,4.27S1.476,3.2,3.68,3.689l1.233-.981a10.408,10.408,0,0,0-3.292.03S2.758,1.8,5.246,2.481L6.589,1.7a12.513,12.513,0,0,0-3.148-.267,4.942,4.942,0,0,1,3.543.056l.96-.422S6.5.789,6.073.748,5.63.589,5.63.589a5.131,5.131,0,0,1,2.712.3A12.412,12.412,0,0,0,10.352.015Z" transform="translate(0.185 0.359)"/></g><g class="v" transform="translate(257 189)"><path class="i" d="M1.954.01S-3.481,9.065,3.778,11.3a1.865,1.865,0,0,0,2.149.027s-.487-.264.168-1.121a4.885,4.885,0,0,0,.581-.991,2.354,2.354,0,0,0,.122-1.5h0S7.054,4.536,3.2,1.327c0,0-.564-1.234-.822-1.327L2.248,1.92a3.277,3.277,0,0,1,2.184.946s-2.1-.987-2.219-.662c-.021.069-.024,1.029-.024,1.029S4.695,3.315,5.8,4.749c0,0-2.352-1.509-3.616-1.152l.084,1.44S4.922,5,6.245,6.579c0,0-2.517-1.495-3.934-1.231l.276,1.406s2.59,0,3.679,1.334c0,0-3.084-1.437-3.591-1.029a7.751,7.751,0,0,0,.588,1.574s1.858.048,2.422.874c0,0-2.166-.747-2.289-.535a7.575,7.575,0,0,0,1.75,2.1,5.424,5.424,0,0,1-2-1.951,2.9,2.9,0,0,0,0,1.714s-.879-.61-.22-2.057A6.747,6.747,0,0,1,2.322,7.32a6.427,6.427,0,0,0-.913,2.4s-.5-1.2.826-2.777L1.926,5.537A9.213,9.213,0,0,0,.572,8.2S.253,6.9,1.877,5.177l-.1-1.409A10.9,10.9,0,0,0,.239,6.189,4.321,4.321,0,0,1,1.765,3.36l.049-.95S.974,3.459.764,3.782s-.319.291-.319.291A4.5,4.5,0,0,1,1.828,2.016,11.216,11.216,0,0,0,1.954.01Z" transform="translate(0.114 0.11)"/></g><g class="v" transform="translate(223 113)"><path class="i" d="M1.953.007S-3.479,9.065,3.776,11.3a1.858,1.858,0,0,0,2.149.027s-.487-.264.171-1.121a4.857,4.857,0,0,0,.578-.991,2.331,2.331,0,0,0,.122-1.5h0S7.056,4.533,3.2,1.323c0,0-.563-1.231-.822-1.323L2.247,1.917a3.271,3.271,0,0,1,2.184.946s-2.1-.987-2.215-.662c-.025.069-.025,1.029-.025,1.029s2.5.082,3.609,1.515c0,0-2.352-1.509-3.616-1.152l.088,1.44s2.65-.041,3.973,1.543c0,0-2.516-1.491-3.934-1.231l.276,1.406s2.59,0,3.682,1.337c0,0-3.087-1.44-3.595-1.029a7.584,7.584,0,0,0,.592,1.57s1.855.048,2.419.874c0,0-2.167-.747-2.286-.535a7.459,7.459,0,0,0,1.75,2.1,5.428,5.428,0,0,1-2-1.947,2.918,2.918,0,0,0,0,1.694s-.878-.61-.22-2.074A6.747,6.747,0,0,1,2.32,7.282a6.427,6.427,0,0,0-.914,2.4s-.5-1.2.829-2.777L1.925,5.5A9.141,9.141,0,0,0,.574,8.167s-.322-1.306,1.3-3.027l-.1-1.409A10.9,10.9,0,0,0,.238,6.151,4.311,4.311,0,0,1,1.764,3.326l.049-.953S.973,3.422.763,3.744s-.318.291-.318.291a4.528,4.528,0,0,1,1.4-2.057A10.753,10.753,0,0,0,1.953.007Z" transform="translate(0.07 0.213)"/></g><g class="v" transform="translate(93 41)"><path class="i" d="M11.349,0s-20.1,15.181-6.8,27.206a4.212,4.212,0,0,0,4.543,2.129s-.786-1.063,1.423-2.364a11.373,11.373,0,0,0,2.163-1.677,5.891,5.891,0,0,0,1.68-3.253h0s3.555-6.918-1.6-17.855c0,0-.031-3.322-.5-3.781L10.177,4.6s3.023,1.478,3.75,4.236c0,0-3.551-4.261-4.09-3.614C9.728,5.353,8.82,7.5,8.82,7.5s5.249,2.6,6.243,6.889c0,0-3.576-5.667-6.609-6.08L7.276,11.642s5.673,2.461,6.988,7.3c0,0-3.937-5.783-7.2-6.56l-.737,3.437s5.489,2.512,6.557,6.549c0,0-5.217-6.21-6.675-5.751a17.666,17.666,0,0,0-.233,4.11s3.9,1.9,4.32,4.3c0,0-3.9-3.766-4.358-3.4,0,0,.424,4.337,1.76,6.423a13.481,13.481,0,0,1-2.41-6.318,7.444,7.444,0,0,0-1.576,3.835S2.417,23.346,5.2,20.678c0,0-.2-3.4.1-3.867,0,0-3.1,2.23-4.219,4.543,0,0,.066-3.2,4.383-5.461l.668-3.466s-4.247,2.722-5.391,4.7c0,0,.553-3.253,5.628-5.573L7.488,8.281a26.255,26.255,0,0,0-5.565,3.976s1.137-2.892,5.913-4.9l1-2.1S6.052,6.81,5.3,7.33s-.957.361-.957.361a10.672,10.672,0,0,1,4.89-3.314S11.582.17,11.349,0Z" transform="translate(0.275 0.199)"/></g><g class="v" transform="translate(54 87)"><path class="i" d="M30.418,3.162S4.078-8.271.626,12.344a5.149,5.149,0,0,0,.7,5.869s.539-1.425,3.086.047a12.864,12.864,0,0,0,2.875,1.207,6.278,6.278,0,0,0,4.093-.225h0s8.659-.484,15.947-12.182c0,0,3.121-1.993,3.28-2.742l-5.224.364s.4,3.945-1.761,6.313c0,0,1.92-6.124,1-6.295-.187-.036-2.758.313-2.758.313s.666,6.862-2.818,10.411c0,0,3.234-6.978,1.825-10.287l-3.85.767s1.057,7.218-2.755,11.415c0,0,3.132-7.418,1.923-11.185L12.5,7.413s.891,7.058-2.3,10.545c0,0,2.783-8.949,1.472-10.182,0,0-3.318,1.389-4.03,2.182,0,0,.528,5.091-1.5,6.927,0,0,1.247-6.182.631-6.436,0,0-3.857,3-5.034,5.582A15.12,15.12,0,0,1,6.287,9.849a7.844,7.844,0,0,0-4.58.665S3.043,7.893,7.221,9.136c0,0,3.1-2.215,3.716-2.182,0,0-3.952-1.818-6.809-1.593,0,0,3.061-1.818,7.775,1.218l3.674-1.375s-5.1-2.7-7.665-2.691c0,0,3.4-1.36,8.624,2.422l3.769-.8S16.077,1.46,13.223.842c0,0,3.421-.56,8.166,3.109l2.579-.222s-3.121-1.9-4.065-2.36-.9-.76-.9-.76a12.14,12.14,0,0,1,6.049,3S30.393,3.5,30.418,3.162Z" transform="translate(0.325 0.162)"/></g><g class="v" transform="translate(43 48)"><path class="i" d="M25.515,14.416S16.2-7.369,2.811,2.622A4.018,4.018,0,0,0,0,6.426s1.1-.519,1.8,1.8a11.108,11.108,0,0,0,1.054,2.35A5.31,5.31,0,0,0,5.4,12.8h0s5.4,4.7,16.162,2.094c0,0,2.948.636,3.454.3l-3.292-2.8S19.8,14.917,17.2,15.038c0,0,4.508-2.453,4.055-3.083-.091-.128-1.806-1.4-1.806-1.4s-3.384,4.366-7.378,4.434c0,0,5.759-2.2,6.742-4.924L16.11,8.286s-3.4,4.811-7.962,5.063c0,0,5.938-2.507,7.3-5.394L12.554,6.593S9.2,11.216,5.4,11.39c0,0,6.574-3.6,6.472-5.067A15.132,15.132,0,0,0,8.274,5.285S5.79,8.538,3.573,8.446c0,0,4.142-2.876,3.914-3.378,0,0-3.935-.476-6.054.356a11.868,11.868,0,0,1,6.1-.974,6.594,6.594,0,0,0-3.074-2.24s2.238-.757,4.026,2.364c0,0,3.053.5,3.408.868,0,0-1.335-3.339-3.162-4.843,0,0,2.811.711,3.939,5.18L15.6,7.1s-1.535-4.508-3.06-5.97c0,0,2.765,1.166,3.777,6.364l2.667,1.7a25.118,25.118,0,0,0-2.379-5.984s2.333,1.643,3.127,6.5l1.651,1.351s-.808-2.894-1.114-3.7-.112-.96-.112-.96a10.3,10.3,0,0,1,1.929,5.22S25.319,14.6,25.515,14.416Z" transform="translate(0.309 0.077)"/></g><g class="v" transform="translate(242 66)"><path class="i" d="M11.475,7.537s-2.344-10-9.75-6.963A1.9,1.9,0,0,0,0,1.931s.581-.123.69.917A4.33,4.33,0,0,0,.956,3.931a2.393,2.393,0,0,0,1.009,1.16h0s2.13,2.453,7.541,2.3a5.642,5.642,0,0,0,1.631.427L9.829,6.351A3.719,3.719,0,0,1,7.4,7.067s2.4-.637,2.25-.943c-.034-.063-.731-.75-.731-.75a6.138,6.138,0,0,1-3.979,1.22s2.974-.42,3.716-1.483L7.534,4.127a6.408,6.408,0,0,1-4.29,1.43s3.094-.533,4.027-1.63L6.019,3.094s-2.063,1.647-3.9,1.39c0,0,3.506-.94,3.6-1.567a7.826,7.826,0,0,0-1.624-.753s-1.5,1.153-2.561.92c0,0,2.25-.847,2.209-1.08A9,9,0,0,0,.8,1.621a6.6,6.6,0,0,1,3.019.123A3.02,3.02,0,0,0,2.561.531a1.746,1.746,0,0,1,1.7,1.333,7.785,7.785,0,0,1,1.549.667A5.994,5.994,0,0,0,4.77.2a2.755,2.755,0,0,1,1.384,2.53l1.279.813A8.172,8.172,0,0,0,6.548.754s1.211.737,1.189,3l1.125.953a9.617,9.617,0,0,0-.555-2.73,3.924,3.924,0,0,1,.863,3l.66.717s-.1-1.29-.169-1.667.038-.417.038-.417a3.973,3.973,0,0,1,.416,2.373A11.475,11.475,0,0,0,11.475,7.537Z" transform="translate(0.218 0.009)"/></g><g class="v" transform="translate(204 265)"><path class="i" d="M11.479,7.537s-2.34-10-9.75-6.963A1.9,1.9,0,0,0,0,1.931s.581-.123.69.917A4.172,4.172,0,0,0,.96,3.931a2.391,2.391,0,0,0,1.005,1.16h0s2.13,2.453,7.545,2.3a5.646,5.646,0,0,0,1.627.427l-1.3-1.467a3.724,3.724,0,0,1-2.43.717s2.4-.637,2.25-.943c-.03-.063-.731-.75-.731-.75a6.138,6.138,0,0,1-3.979,1.22s2.977-.42,3.716-1.483l-1.125-1A6.284,6.284,0,0,1,3.259,5.537S6.352,5,7.286,3.907L6.034,3.074s-2.059,1.647-3.9,1.39c0,0,3.506-.937,3.6-1.567A7.923,7.923,0,0,0,4.11,2.144s-1.5,1.153-2.565.92c0,0,2.25-.847,2.209-1.08A9,9,0,0,0,.814,1.6a6.613,6.613,0,0,1,3.023.123A3.045,3.045,0,0,0,2.58.511a1.743,1.743,0,0,1,1.7,1.333,7.806,7.806,0,0,1,1.553.667A5.994,5.994,0,0,0,4.789.177a2.749,2.749,0,0,1,1.38,2.53l1.283.813A8.2,8.2,0,0,0,6.563.734s1.215.737,1.193,3l1.125.953a9.533,9.533,0,0,0-.559-2.73,3.916,3.916,0,0,1,.866,3l.66.717s-.1-1.29-.172-1.667.037-.413.037-.413a3.958,3.958,0,0,1,.416,2.37A12.783,12.783,0,0,0,11.479,7.537Z" transform="translate(0.356 0.049)"/></g></g></svg>