<svg xmlns="http://www.w3.org/2000/svg" width="60.009" height="60.008" viewBox="0 0 60.009 60.008"><defs><style>.a{fill:#fa5531;}.b{fill:#032291;}.c{fill:#fff;}.d{fill:#3e3e43;}</style></defs><g transform="translate(36.568 4.688)"><rect class="a" width="11" height="26" transform="translate(-34.568 28.312)"/><path class="b" d="M-18410.615-8916.892h17.256l.66,36.871h-27.158v-36.871Z" transform="translate(18415.432 8913.312)"/><path class="c" d="M320.673,40A8.667,8.667,0,0,0,314.7,54.949a1.161,1.161,0,0,0,.138.132,8.657,8.657,0,0,0,11.678,0,1.173,1.173,0,0,0,.138-.132A8.667,8.667,0,0,0,320.673,40Zm0,15a6.292,6.292,0,0,1-3.635-1.153,4.313,4.313,0,0,1,7.27,0A6.292,6.292,0,0,1,320.673,55Zm-1.206-6.695v-.595a1.206,1.206,0,0,1,2.413,0v.595a1.206,1.206,0,1,1-2.413,0Zm6.5,3.824a6.6,6.6,0,0,0-2.306-1.915,3.528,3.528,0,0,0,.559-1.909v-.595a3.55,3.55,0,0,0-7.1,0v.595a3.529,3.529,0,0,0,.559,1.909,6.6,6.6,0,0,0-2.306,1.915,6.329,6.329,0,1,1,10.594,0Z" transform="translate(-312 -40)"/></g><path class="d" d="M58.758,45.418a4.53,4.53,0,0,0-5.776-.526l-.039.028-6.57,4.941a1.172,1.172,0,1,0,1.409,1.873l6.549-4.925a2.186,2.186,0,0,1,2.77.266,1.926,1.926,0,0,1-.15,2.858l-6,4.857a12.932,12.932,0,0,1-8.115,2.874H25.493A12.891,12.891,0,0,1,18.814,55.8l-4.72-2.859V38.107h9.038a4.656,4.656,0,0,1,3.313,1.371l6.235,6.264A4.657,4.657,0,0,0,36,47.116h4.6a1.756,1.756,0,1,1,0,3.511H31.762a4.163,4.163,0,0,1-2.276-.675l-3.761-2.446-.014-.009A1.172,1.172,0,1,0,24.43,49.46l3.778,2.457a6.5,6.5,0,0,0,3.554,1.054h8.832a4.1,4.1,0,0,0,0-8.2H36.07l9.744-5.626h11.85A2.347,2.347,0,0,0,60.008,36.8V2.344A2.347,2.347,0,0,0,57.664,0H32.817a2.347,2.347,0,0,0-2.344,2.344V36.8a2.347,2.347,0,0,0,2.344,2.344h8.309l-7.433,4.291h0L28.1,37.823a6.986,6.986,0,0,0-4.973-2.06H14.094V33.7a2.347,2.347,0,0,0-2.344-2.344H1.172A1.172,1.172,0,0,0,0,32.524V58.836a1.172,1.172,0,0,0,1.172,1.172H11.75a2.347,2.347,0,0,0,2.344-2.344V55.681L17.6,57.8a15.235,15.235,0,0,0,7.893,2.2H42.839a15.283,15.283,0,0,0,9.59-3.4l6-4.857a4.27,4.27,0,0,0,.332-6.337ZM32.817,36.8V2.344H57.664l0,34.458H32.817ZM11.75,57.664H2.344V33.7H11.75v3.235s0,0,0,0,0,0,0,0v16.6c0,.03,0,.059,0,.089v4.032Z"/><g transform="translate(14.121 5.317)"><path class="d" d="M133.8,45.95a1.172,1.172,0,0,0-1.6-.429l-10.551,6.092a2.347,2.347,0,0,0-.858,3.2l10.24,17.736a1.172,1.172,0,0,0,2.03-1.172l-10.24-17.736,10.551-6.092A1.172,1.172,0,0,0,133.8,45.95Z" transform="translate(-120.481 -45.364)"/></g><g transform="translate(37.74 24.847)"><path class="c" d="M336.768,212h-13.6a1.172,1.172,0,0,0,0,2.344h13.6a1.172,1.172,0,1,0,0-2.344Z" transform="translate(-322 -212)"/></g><g transform="translate(51.335 30.004)"><path class="c" d="M440,256.343a1.171,1.171,0,1,0,.343.829A1.181,1.181,0,0,0,440,256.343Z" transform="translate(-438 -256)"/></g><g transform="translate(37.74 30.004)"><path class="c" d="M331.879,256h-8.707a1.172,1.172,0,1,0,0,2.344h8.707a1.172,1.172,0,1,0,0-2.344Z" transform="translate(-322 -256)"/></g><g transform="translate(5.875 43.195)"><path class="c" d="M51.3,368.547a1.172,1.172,0,0,0-1.172,1.172V374.3a1.172,1.172,0,0,0,2.344,0v-4.585A1.172,1.172,0,0,0,51.3,368.547Z" transform="translate(-50.125 -368.547)"/></g><g transform="translate(5.875 51.815)"><path class="c" d="M52.131,442.433a1.174,1.174,0,1,0,.342.829A1.184,1.184,0,0,0,52.131,442.433Z" transform="translate(-50.13 -442.09)"/></g></svg>