<svg xmlns="http://www.w3.org/2000/svg" width="66.542" height="66.957" viewBox="0 0 66.542 66.957"><defs><style>.a{fill:#032291;}.b{fill:#fa5531;}.c{fill:#4d4d52;}</style></defs><g transform="translate(-1.585 0.006)"><g transform="translate(1.585 -0.006)"><g transform="translate(0 0)"><path class="a" d="M60.469,26.785l-2.9-2.343-4.687-1.507-2.342,1.842-3.07-1.842-5.8,2.288v1.562l-.279,1.061,4.186,2.176,3.738.5s2.566.222,2.734.278,4.854-.781,4.854-.781Z"/><path class="b" d="M60.469,26.785l-2.9-2.343-4.687-1.507-2.342,1.842-3.07-1.842-5.8,2.288v1.562l-.279,1.061,4.186,2.176,3.738.5s2.566.222,2.734.278,4.854-.781,4.854-.781Z" transform="translate(-35 35)"/><path class="c" d="M297.34,15.816v-.037c0-.08,0-.159,0-.241l-.007-.2c0-.077-.007-.153-.011-.228s-.008-.132-.012-.2-.011-.155-.018-.235q-.008-.1-.017-.194c-.008-.079-.016-.156-.025-.239-.007-.06-.013-.12-.021-.184-.01-.081-.021-.161-.032-.242l-.005-.04c-.006-.046-.012-.092-.019-.135-.013-.09-.028-.18-.043-.269l-.024-.148q-.035-.2-.074-.393l0-.018c-.028-.137-.058-.274-.09-.413l-.031-.127c-.022-.094-.045-.187-.069-.28-.011-.043-.022-.085-.034-.127l-.006-.021c-.023-.086-.047-.172-.07-.254-.015-.053-.031-.106-.046-.154-.025-.084-.05-.167-.076-.249l-.049-.153c-.027-.083-.055-.166-.083-.245-.018-.051-.035-.1-.052-.147-.03-.085-.061-.169-.095-.26l-.05-.131c-.035-.09-.071-.18-.108-.271l-.033-.083-.015-.034a16,16,0,0,0-.834-1.708,1.051,1.051,0,0,0-1.83,1.033,13.909,13.909,0,0,1,.735,1.51l.01.023.02.051c.032.079.064.158.093.233l.045.118c.027.073.055.147.083.227.015.04.029.08.044.124.025.071.049.142.07.208l.045.139c.022.071.044.142.067.218.013.043.026.086.039.133.021.073.041.147.062.224l.034.126c.021.081.041.162.06.243l.027.109c.026.112.051.224.076.348l0,.022c.023.114.045.229.065.341l.022.132c.013.077.026.154.038.234.005.035.01.071.015.106l.006.044c.01.071.02.142.028.21s.012.107.019.165.015.137.021.205.01.113.014.167.011.134.015.2.008.114.011.172.007.137.01.2l.007.178c0,.069,0,.138,0,.21v.043c0,.041,0,.081,0,.126,0,.061,0,.123,0,.184l0,.191c0,.1-.007.193-.01.282l0,.1a13.866,13.866,0,0,1-3.787,8.849,5.8,5.8,0,0,0-2.883-2.509l-4.028-1.615v-.6a6.358,6.358,0,0,0,2.831-3.11,1.064,1.064,0,0,0,.147.012,2.872,2.872,0,0,0,2.8-2.932,2.944,2.944,0,0,0-1.629-2.66v-.822a7.412,7.412,0,0,0-7.1-7.67h-.5a7.412,7.412,0,0,0-7.1,7.67v.826a2.944,2.944,0,0,0-1.623,2.656,2.872,2.872,0,0,0,2.8,2.932,1.044,1.044,0,0,0,.159-.013,6.344,6.344,0,0,0,2.923,3.158v.547l-4.136,1.62a5.806,5.806,0,0,0-2.889,2.514A13.889,13.889,0,0,1,267.4,15.316l.006-.088c.006-.1.011-.191.019-.287,0-.033.006-.067.009-.1l.01-.105c.005-.058.01-.117.016-.172s.01-.087.015-.131l0-.04c.008-.068.016-.136.024-.2l.025-.175c.01-.067.02-.133.03-.2s.019-.114.029-.172.024-.134.035-.2.021-.113.032-.165c.014-.068.028-.136.042-.2l.036-.163c.016-.07.033-.139.049-.206l.037-.151c.019-.076.04-.152.061-.227l.034-.125c.032-.113.065-.225.1-.342l0-.01c.036-.116.074-.231.111-.34l.04-.111c.028-.079.055-.157.085-.237l.047-.123c.027-.072.055-.143.084-.215l.053-.129c.028-.069.057-.137.09-.213l.054-.122c.031-.07.063-.139.094-.207l.058-.123c.033-.071.068-.141.1-.208l.057-.114c.038-.075.078-.15.12-.229l.026-.051.009-.016a13.94,13.94,0,0,1,2.468-3.3l.017-.018.054-.051L271.641,6l.11-.106.085-.078.053-.049.113-.1.132-.117.129-.112.109-.091.027-.022.129-.107.117-.094.017-.014.132-.1.142-.108.134-.1.141-.1.139-.1.142-.1.144-.1.147-.1.144-.091.15-.093.146-.087.149-.088.13-.073.039-.022.132-.073.113-.06.052-.027.139-.073.112-.056.085-.043.116-.057.133-.062.077-.036.1-.049.158-.069.031-.013.216-.092c.076-.032.153-.063.229-.093l.085-.032.1-.039.139-.052.108-.038.087-.03.133-.046.1-.033.09-.029.141-.045.19-.056.148-.043.166-.045.177-.046.164-.04.18-.042.164-.036.18-.037.17-.032.185-.033.166-.028.189-.028.165-.023.189-.023.17-.019.191-.019.166-.015.2-.014.022,0,.14-.009.145-.006.217-.009.179,0,.187,0,.206,0,.165,0q.182,0,.365.014h.009c.123.006.244.014.366.024l.172.015.192.018.191.022.174.021.207.029.153.022.138.023.03.005.191.033.126.024.037.007.19.038.164.036.187.043.166.041.181.046.166.045.178.051.163.049.176.055.16.052.177.061.159.056.171.063.161.061.131.053.085.035.109.045.149.065.069.03.1.045.138.064.091.043.089.042.126.063.184.092c.073.038.145.077.221.117l.2.112.033.018.148.084.1.058.083.049.118.07.106.066.086.054.1.065.114.075.061.041.114.076.131.092.012.008.016.011.126.089.14.1.014.01.122.091.139.107.135.106.134.109.131.108.137.116.126.11.129.115.125.115.128.12.121.116.032.031.1.094.119.121.119.123.1.1.024.025a1.051,1.051,0,0,0,1.538-1.432l-.023-.024-.113-.121-.137-.141-.139-.141-.111-.11-.03-.03-.141-.136-.148-.139-.144-.132L291.913,4l-.148-.129-.153-.13-.149-.123-.157-.128-.155-.122-.156-.12-.146-.109-.012-.009-.162-.119-.148-.1L290.5,2.89l-.155-.108-.138-.092-.055-.037-.14-.092-.126-.08-.08-.05-.131-.082-.146-.088-.069-.041-.127-.075-.179-.1-.031-.017c-.079-.044-.158-.088-.234-.128s-.168-.09-.255-.135l-.109-.055-.093-.046-.155-.077-.118-.056-.085-.04-.164-.076-.132-.058-.062-.027-.178-.077-.132-.055-.086-.035-.158-.063-.147-.056-.035-.013-.2-.073L286.6.889,286.4.82l-.184-.06-.2-.064L285.825.64l-.207-.059-.19-.051-.211-.054-.189-.046L284.815.38,284.628.34l-.222-.045-.038-.007L284.22.259,284,.22l-.023,0-.164-.027-.184-.027-.105-.015L283.393.13l-.206-.025-.213-.024L282.747.06l-.1-.009-.1-.009c-.135-.011-.27-.019-.406-.027l-.037,0c-.136-.007-.272-.012-.4-.015l-.1,0h-.091l-.24,0h0l-.206,0-.212,0-.127,0-.114,0-.176.008-.169.011h-.018l-.23.016-.192.017-.219.021-.2.022L279.2.132l-.2.027-.214.032-.19.032-.214.038L278.195.3l-.218.045-.185.04-.2.047L277.4.477l-.2.053L277,.58l-.175.05-.215.064-.169.054-.083.027-.129.042-.165.057L275.99.9l-.14.049-.169.063-.091.035-.117.044c-.088.035-.176.071-.262.106s-.165.069-.249.105l-.03.014-.187.082-.136.063-.064.03-.164.077-.142.07-.079.039-.137.068-.176.093-.038.02-.137.073-.155.086-.036.02-.155.087-.176.1-.165.1-.171.106-.166.105-.169.111-.163.109-.162.112-.163.115-.163.118-.155.116-.159.121-.155.122-.018.014-.136.109-.153.126-.022.018-.13.11-.151.131-.038.033-.11.1-.137.126-.044.04-.109.1-.132.128-.04.039-.1.092-.02.021A16.03,16.03,0,0,0,267.21,8.4l-.013.024-.035.066-.008.015c-.046.086-.092.173-.136.259l-.065.13c-.04.081-.079.162-.118.242l-.067.142c-.036.078-.072.157-.108.239l-.012.026-.051.116c-.035.08-.069.161-.1.239l-.061.149c-.033.083-.066.166-.1.249l-.011.029-.043.114c-.034.09-.066.181-.1.269l-.045.128q-.067.2-.129.4l-.008.028c-.039.125-.076.251-.113.38l-.039.142c-.024.087-.048.174-.07.262-.01.04-.02.081-.03.121l-.013.052c-.019.08-.039.16-.056.238-.011.047-.021.094-.031.14l-.01.044c-.016.076-.032.153-.049.233-.012.063-.024.126-.037.193s-.028.153-.041.227-.022.129-.032.2-.024.155-.035.231l-.006.042c-.007.05-.014.1-.022.155-.01.079-.02.159-.028.231l0,.031c-.007.055-.013.111-.019.169s-.013.132-.019.2l-.009.1c0,.044-.008.088-.012.131-.009.108-.015.217-.021.33l0,.028c0,.024,0,.049,0,.073A16.047,16.047,0,0,0,280.5,32.032q.418.021.833.021a16.029,16.029,0,0,0,15.989-15.215l0-.105c0-.108.009-.216.012-.331,0-.046,0-.093,0-.139v-.07c0-.074,0-.148,0-.218C297.342,15.922,297.341,15.869,297.34,15.816ZM287.921,15v-.785l.042-.014a.9.9,0,0,1,.24.624.883.883,0,0,1-.3.682C287.912,15.342,287.921,15.173,287.921,15Zm-13.482-.174a.9.9,0,0,1,.238-.622l.057.017V15c0,.175.008.348.021.519A.879.879,0,0,1,274.439,14.827Zm1.867-3.255h0a1.057,1.057,0,0,0-.226.025l-.014,0v-.249a5.315,5.315,0,0,1,5-5.569h.5a5.315,5.315,0,0,1,5,5.569v.249c-1.477-.4-2-2.638-2-2.657a1.051,1.051,0,0,0-1.905-.367C280.705,11.532,276.375,11.572,276.306,11.572ZM276.835,15V13.651a10.885,10.885,0,0,0,6.354-2.491,4.756,4.756,0,0,0,2.631,2.4V15a4.208,4.208,0,0,1-3.95,4.417h-1.085A4.208,4.208,0,0,1,276.835,15Zm5.588,6.49v.643l-1.085,1.126-1.016-.989V21.5c.153.012.307.021.463.021h1.085C282.056,21.52,282.241,21.51,282.423,21.492Zm-1.817,8.442a13.848,13.848,0,0,1-7.789-2.882l.006-.012a3.625,3.625,0,0,1,1.966-1.99l.048-.018,3.786-1.482,2.006,1.954a1.051,1.051,0,0,0,.733.3h.017a1.05,1.05,0,0,0,.74-.322l1.893-1.965,3.776,1.514.047.018a3.628,3.628,0,0,1,1.978,2A13.869,13.869,0,0,1,280.606,29.933Z" transform="translate(-230.799 0.006)"/><path class="c" d="M66.427,45.8a1.05,1.05,0,0,0,1.051-1.051V25.117H85.666L81,29.783a1.051,1.051,0,0,0,1.486,1.486l6.3-6.3a1.051,1.051,0,0,0,0-1.486l-6.3-6.3A1.051,1.051,0,0,0,81,18.674l4.341,4.341H66.427a1.05,1.05,0,0,0-1.051,1.051V44.753A1.05,1.05,0,0,0,66.427,45.8Z" transform="translate(-57.034 -14.672)"/><path class="c" d="M287.955,270.3a1.051,1.051,0,0,0-1.051,1.051V290.99H268.716l4.666-4.666a1.051,1.051,0,0,0-1.486-1.486l-6.3,6.3a1.051,1.051,0,0,0,0,1.486l6.3,6.3a1.051,1.051,0,0,0,1.486-1.486l-4.341-4.341h18.915a1.051,1.051,0,0,0,1.051-1.051V271.354A1.051,1.051,0,0,0,287.955,270.3Z" transform="translate(-230.805 -234.953)"/><path class="c" d="M19.58,266.971A16.047,16.047,0,0,0,1.706,280.918l-.011.1c-.012.107-.024.215-.036.33,0,.047-.008.093-.012.139l-.006.072c-.006.073-.012.145-.017.215s-.007.114-.01.17v.023c0,.08-.009.16-.013.242l-.008.229c0,.067,0,.135,0,.2s0,.131,0,.194c0,.079,0,.157,0,.237,0,.065,0,.129,0,.2s0,.155.007.234c0,.062,0,.124.008.189,0,.082.009.164.015.245l0,.042c0,.046.006.091.009.134.007.09.015.178.024.271l.014.151q.021.2.046.4l0,.018c.018.139.038.278.06.418l.021.128c.016.1.032.192.049.284q.011.062.024.123l.006.029c.017.088.034.176.052.259.012.055.024.11.035.158.019.086.038.171.057.251l.038.157c.021.085.043.169.065.254.014.052.028.1.04.147.024.087.049.174.077.267l.04.134c.028.092.058.184.089.282l.026.08c0,.012.008.023.012.035a16.02,16.02,0,0,0,.709,1.765,1.051,1.051,0,1,0,1.9-.9,13.925,13.925,0,0,1-.624-1.559l-.008-.024-.016-.051c-.026-.082-.053-.163-.077-.242l-.036-.121c-.022-.075-.044-.149-.067-.234-.012-.041-.023-.082-.034-.123-.019-.073-.038-.146-.055-.216l-.035-.143c-.017-.072-.033-.143-.051-.222-.01-.043-.019-.086-.029-.133-.016-.074-.03-.149-.045-.226l-.026-.131c-.015-.081-.028-.163-.043-.249l-.018-.107c-.018-.119-.036-.238-.051-.358l0-.017c-.015-.115-.028-.231-.04-.346l-.013-.139c-.007-.075-.014-.151-.02-.229,0-.035,0-.071-.007-.106l0-.046c0-.071-.009-.143-.013-.211s0-.111-.007-.166,0-.139-.007-.206,0-.113,0-.168,0-.133,0-.2,0-.116,0-.174,0-.119,0-.178L3.7,282.3c0-.068.007-.137.012-.212l0-.032c0-.044,0-.087.008-.134s.01-.123.015-.184l.016-.19c.01-.1.02-.192.031-.285l.01-.092a13.927,13.927,0,1,1,27.643,3.42l-.012.083c-.013.1-.025.19-.04.287,0,.033-.01.067-.016.1l-.016.1c-.009.058-.019.117-.029.173s-.016.086-.025.129l-.008.04c-.013.067-.026.135-.039.2l-.037.171c-.014.066-.029.132-.045.2s-.026.11-.04.167-.033.133-.049.195l-.044.164c-.018.066-.037.132-.056.2l-.012.039-.036.122q-.028.093-.058.184l-.053.165c-.025.075-.051.148-.076.22l-.043.123c-.04.111-.082.22-.122.323l0,.011,0,.01c-.044.113-.09.225-.136.333l-.048.108c-.033.076-.066.152-.1.23l-.056.119c-.032.07-.065.139-.1.208l-.063.126c-.033.066-.067.133-.105.206l-.048.092-.014.026q-.053.1-.108.2l-.067.119c-.038.068-.078.135-.116.2l-.066.111c-.043.072-.088.143-.134.216l-.03.049-.012.018a13.913,13.913,0,0,1-1.634,2.094,5.8,5.8,0,0,0-2.886-2.514l-4.028-1.615v-.6a6.358,6.358,0,0,0,2.831-3.11,1.061,1.061,0,0,0,.147.012,2.872,2.872,0,0,0,2.8-2.932,2.944,2.944,0,0,0-1.629-2.66V278.2a7.412,7.412,0,0,0-7.1-7.67h-.5a7.412,7.412,0,0,0-7.1,7.67v.826a2.944,2.944,0,0,0-1.623,2.656,2.872,2.872,0,0,0,2.8,2.932,1.046,1.046,0,0,0,.159-.013,6.344,6.344,0,0,0,2.923,3.158v.547l-4.136,1.62a5.806,5.806,0,0,0-2.892,2.52l-.055-.058-.118-.127-.112-.125L7.091,292c-.037-.042-.073-.085-.11-.129l-.109-.129-.111-.137a1.051,1.051,0,0,0-1.637,1.317l.025.031.1.125.126.149.129.151.1.114.032.036.13.145.137.148.135.143.149.154.128.129.144.141.138.133.149.139.147.134.018.016.128.114.129.112.02.018.153.13.128.106.029.024.151.122.155.121.026.02.134.1.12.089.07.051.131.1.146.1.063.044.118.082c.057.039.115.077.172.114l.029.019c.075.05.151.1.224.145s.161.1.243.152l.114.068.083.049c.05.03.1.06.148.087l.114.064.075.042.164.091.12.064.049.026.191.1.136.068.081.04.148.072.174.081.192.087.182.079.195.083.178.073.2.08.181.069.2.075.185.065.2.069.186.06.209.064.185.055.217.06.037.01.147.039.221.055.026.006.158.038.185.041.094.02.132.028.212.041.2.038.223.037.1.016.094.015q.2.03.4.055h0l.044.005c.133.016.266.031.4.043l.1.009.09.008.24.019.113.007.1.006.212.012.128,0,.109,0,.18.005.169,0h.247l.167,0h.026l.221-.006.174-.007h.023l.212-.011.177-.012.023,0,.217-.017.192-.018.218-.023.19-.022.214-.028.193-.027.206-.033.2-.033.2-.038.193-.038.21-.044.05-.011.138-.03.161-.039.1-.025.126-.031.163-.044.073-.02.154-.042.167-.049.094-.028.125-.037c.09-.028.18-.058.27-.087l.254-.087.03-.01.195-.069.136-.051.063-.024.175-.067.139-.057.091-.037.141-.058.149-.065.217-.1.154-.071.059-.028.145-.069.188-.093.168-.084.179-.094.173-.093.177-.1.17-.1.171-.1.17-.1.169-.105.163-.1.169-.111.164-.111.032-.022.129-.089.161-.115.021-.015.14-.1.161-.121.045-.034.111-.085.138-.109.053-.043.117-.094.127-.106.063-.053.1-.08.022-.02a16.039,16.039,0,0,0,3.07-3.535l.018-.026.037-.06.011-.018c.052-.083.1-.166.152-.246l.076-.128c.046-.078.092-.156.134-.231l.077-.137c.042-.076.084-.152.126-.231l.014-.025c.021-.04.043-.08.059-.113.041-.078.08-.156.117-.23.024-.048.049-.1.072-.145.039-.08.077-.161.114-.238l.065-.14c.041-.088.079-.177.116-.263l.054-.124q.08-.189.156-.381l.009-.023c.049-.124.1-.249.144-.382l.047-.135c.03-.086.06-.171.089-.257.013-.039.026-.079.038-.119l.023-.073c.023-.071.046-.143.067-.212.014-.047.028-.095.042-.143l.011-.039q.033-.114.065-.228c.017-.062.034-.125.052-.192s.038-.149.056-.222.032-.129.046-.192.035-.152.052-.229l.009-.04c.011-.05.022-.1.033-.156.016-.078.031-.156.045-.229l.006-.033c.01-.054.021-.107.031-.163s.023-.135.034-.2l.015-.09c.008-.045.015-.091.021-.134.016-.107.031-.215.045-.327l0-.026c0-.026.007-.052.01-.074A16.045,16.045,0,0,0,19.58,266.971Zm4.641,14.886v-.785l.042-.014a.9.9,0,0,1,.24.624.883.883,0,0,1-.3.682C24.213,282.2,24.221,282.028,24.221,281.857Zm-13.481-.175a.9.9,0,0,1,.238-.622l.056.017v.78c0,.175.008.348.021.519A.878.878,0,0,1,10.74,281.682Zm1.867-3.255h0a1.054,1.054,0,0,0-.226.025l-.014,0V278.2a5.315,5.315,0,0,1,5-5.569h.5a5.315,5.315,0,0,1,5,5.569v.249c-1.477-.4-2-2.638-2-2.657a1.051,1.051,0,0,0-1.905-.367C17.006,278.387,12.676,278.427,12.607,278.427Zm.529,3.429v-1.351a10.889,10.889,0,0,0,6.354-2.49,4.756,4.756,0,0,0,2.631,2.4v1.44a4.208,4.208,0,0,1-3.95,4.417H17.086A4.208,4.208,0,0,1,13.136,281.857Zm5.588,6.49v.643l-1.085,1.126-1.016-.989v-.772c.153.012.307.021.463.021H18.17C18.357,288.375,18.541,288.365,18.724,288.347Zm7.29,5.64-.137.1-.115.084-.027.019-.137.1-.111.077-.03.02-.141.1-.15.1-.141.09-.147.092-.146.088-.149.088-.15.085-.153.085-.151.081-.157.082-.14.07-.013.006-.155.077-.121.057-.06.028-.129.06-.2.087-.12.052-.213.087-.112.045-.141.054-.079.03-.1.039-.163.058-.031.011-.221.075-.236.076-.094.028-.105.031-.138.041-.119.032-.085.023-.131.035-.1.024-.108.026-.134.032-.175.038-.168.036-.17.033-.179.033-.168.028-.181.029-.167.024-.18.024-.172.02-.186.019-.17.016-.185.015-.022,0-.15.01-.188.01h-.022l-.148.006-.192,0h-.026l-.143,0H17.37l-.147,0-.214-.007-.179-.01-.188-.011-.205-.017-.163-.014c-.121-.012-.242-.025-.364-.04H15.9c-.122-.015-.243-.032-.363-.05l-.172-.028-.19-.032L15,296.557l-.18-.035-.2-.044-.153-.034-.135-.032-.033-.008-.187-.047-.123-.033-.038-.01-.185-.051-.161-.047-.184-.056-.162-.053-.175-.058-.162-.057-.176-.064-.159-.06-.173-.068-.155-.063-.172-.073-.155-.068-.167-.076-.154-.072-.121-.059-.08-.04-.112-.056-.163-.085-.056-.029-.093-.049-.137-.076-.082-.046-.088-.05-.119-.07-.1-.057-.084-.05c-.07-.043-.139-.087-.212-.132s-.13-.084-.2-.126l-.03-.02-.141-.094-.092-.064-.076-.053-.118-.083-.107-.078-.075-.055-.1-.072-.109-.084-.009-.007c0-.006.006-.012.009-.018a3.625,3.625,0,0,1,1.966-1.99l.048-.018,3.786-1.482,2.006,1.954a1.051,1.051,0,0,0,.733.3h.017a1.05,1.05,0,0,0,.74-.322l1.893-1.965,3.776,1.514.047.018a3.627,3.627,0,0,1,1.98,2.007Z" transform="translate(-1.585 -231.951)"/></g></g></g></svg>