<svg xmlns="http://www.w3.org/2000/svg" width="65.22" height="65.22" viewBox="0 0 65.22 65.22"><defs><style>.a{fill:#fa5531;}.b{fill:#3e3e43;}.c{fill:#fff;}.d{fill:#032291;}</style></defs><g transform="translate(0 31.336)"><path class="a" d="M43.148,51.1l3.906,8.146-.5,4.3-28.57.5a45.607,45.607,0,0,1,0-4.8c.168-.335,1.451-5.97,1.451-5.97l3.125-3.236,4.576-.224,4.91,5.189,4.965-4.966,1.674-.224Z" transform="translate(0 -31.336)"/><path class="b" d="M58.258,266.641a5.836,5.836,0,0,0,1.113-3.432v-7.654A1.274,1.274,0,0,0,58.1,254.28H52.4a4.778,4.778,0,0,0-4.773,4.773v4.155a5.836,5.836,0,0,0,1.111,3.431,8.2,8.2,0,0,0-2.49.829,10.838,10.838,0,0,0-8-4.769l-.039-.01a7.489,7.489,0,0,0,1.919-5.011v-10.4A1.274,1.274,0,0,0,38.856,246H31.119a6.036,6.036,0,0,0-6.029,6.029v5.648a7.489,7.489,0,0,0,1.919,5.011l-.039.01a10.838,10.838,0,0,0-8,4.77,8.21,8.21,0,0,0-2.49-.829,5.837,5.837,0,0,0,1.112-3.431v-7.654a1.274,1.274,0,0,0-1.274-1.274H10.622a4.778,4.778,0,0,0-4.773,4.773v4.155a5.836,5.836,0,0,0,1.113,3.432A8.318,8.318,0,0,0,0,274.836v3.774a1.274,1.274,0,0,0,1.274,1.274H63.946a1.274,1.274,0,0,0,1.274-1.274v-3.774A8.318,8.318,0,0,0,58.258,266.641ZM8.4,259.053a2.228,2.228,0,0,1,2.225-2.225h4.419v1.551a1.381,1.381,0,0,1-1.379,1.38H8.4Zm0,3.253h5.265a3.9,3.9,0,0,0,1.379-.251v1.153a3.322,3.322,0,1,1-6.644,0Zm4.143,6.772-.821.821-.821-.821Zm4.6,4.4v3.855H2.548v-2.5a5.767,5.767,0,0,1,4.824-5.681l3.446,3.446a1.274,1.274,0,0,0,1.8,0l3.447-3.448a5.7,5.7,0,0,1,1.74.582A10.78,10.78,0,0,0,17.14,273.481ZM32.61,262.65a4.978,4.978,0,0,1-4.973-4.973v-1.684H35.25a4.85,4.85,0,0,0,2.332-.594v2.278A4.978,4.978,0,0,1,32.61,262.65Zm2.22,2.548-2.221,2.221L30.389,265.2Zm-7.193-13.168h0a3.486,3.486,0,0,1,3.482-3.482h6.464v2.566a2.335,2.335,0,0,1-2.332,2.332H27.637Zm17.9,25.307H19.687v-2.548h8.294a1.274,1.274,0,1,0,0-2.548h-8.2a8.3,8.3,0,0,1,7.082-6.967l4.846,4.846a1.274,1.274,0,0,0,1.8,0l4.846-4.846a8.3,8.3,0,0,1,7.175,8.207v3.855Zm4.646-18.283a2.228,2.228,0,0,1,2.225-2.225h4.419v1.551a1.381,1.381,0,0,1-1.379,1.38H50.178Zm0,3.253h5.265a3.9,3.9,0,0,0,1.379-.251v1.153a3.322,3.322,0,1,1-6.644,0v-.9Zm4.143,6.772-.821.821-.821-.821Zm-6.242,8.258v-3.855a10.779,10.779,0,0,0-.668-3.745,5.682,5.682,0,0,1,1.74-.583L52.6,272.6a1.274,1.274,0,0,0,1.8,0l3.446-3.446a5.767,5.767,0,0,1,4.824,5.681v2.5Z" transform="translate(0 -246)"/><path class="c" d="M0,0H8.5A1.5,1.5,0,0,1,10,1.5v0A1.5,1.5,0,0,1,8.5,3H0A0,0,0,0,1,0,3V0A0,0,0,0,1,0,0Z" transform="translate(20 25.884)"/><circle class="d" cx="12" cy="12" r="12" transform="translate(21 -31.116)"/></g><g transform="translate(25.959 7.95)"><path class="c" d="M216.716,62.782a1.274,1.274,0,0,0-1.8,0l-6.251,6.251-2.7-2.7a1.274,1.274,0,1,0-1.8,1.8l3.6,3.6a1.274,1.274,0,0,0,1.8,0l7.151-7.151A1.274,1.274,0,0,0,216.716,62.782Z" transform="translate(-203.787 -62.409)"/></g><g transform="translate(19.811 0.994)"><path class="b" d="M173.53,7.913a1.274,1.274,0,0,0-1.038,2.327,10.252,10.252,0,1,1-8.385.02,1.274,1.274,0,0,0-1.049-2.322,12.8,12.8,0,1,0,10.472-.024Z" transform="translate(-155.522 -7.803)"/></g><g transform="translate(31.336)"><path class="c" d="M247.319,0h-.046a1.274,1.274,0,0,0,0,2.548h.04A1.274,1.274,0,0,0,247.319,0Z" transform="translate(-246)"/></g><g transform="translate(31.336 57.577)"><path class="c" d="M248.174,452.373a1.273,1.273,0,1,0,.373.9A1.283,1.283,0,0,0,248.174,452.373Z" transform="translate(-246 -452)"/></g></svg>