<svg xmlns="http://www.w3.org/2000/svg" width="62.838" height="71.14" viewBox="0 0 62.838 71.14"><defs><style>.a{fill:#fa5531;}.b{fill:#032291;}.c{fill:#3e3e43;}.d{fill:#fff;}</style></defs><g transform="translate(-28.01 -0.001)"><rect class="a" width="13" height="24" transform="translate(30.01 47.137)"/><path class="b" d="M-17442.357-8919.071l1.76,5.666,1.932.343h4.549s.645.172.645.3-1.674,6.4-1.674,6.4l4.936,3.563-.516,1.459-4.592,3.392,1.674,5.665-6.7.559-1.674,5.322-1.244.858-4.164-3.22-2.875.688-3.176,2.532-2.018-5.537s-.473-.815-.773-.815-5.793.429-5.793.429l-1.074-.815,1.717-3.477.344-1.631-2.061-2.532-2.146-1.116-.771-1.245s.3-.986.514-1.115,4.465-2.79,4.465-2.79v-2.447l-1.545-2.746s-.344-1.675-.172-1.675,5.924.3,5.924.3,1.244-1.89,1.373-2.1,1.416-3.862,1.416-3.862l1.074-.344,4.764,3.734,4.979-3.391Z" transform="translate(17520.01 8920.138)"/><g transform="translate(28.01 0.001)"><g transform="translate(0)"><path class="c" d="M90.521,16.506a2.687,2.687,0,0,0-1.079-1.079h0l-3.449-1.9a.313.313,0,0,1-.148-.412L87.493,9.6a2.644,2.644,0,0,0-.25-2.7,2.758,2.758,0,0,0-2.548-1.124l-3.932.446a.365.365,0,0,1-.407-.269l-.779-3.788A2.687,2.687,0,0,0,77.759.144,2.733,2.733,0,0,0,75.048.71l-2.91,2.618a.4.4,0,0,1-.519,0L68.707.71A2.689,2.689,0,0,0,64.256,2.15L63.4,5.958a.377.377,0,0,1-.407.269L59.06,5.782A2.753,2.753,0,0,0,56.513,6.9a2.646,2.646,0,0,0-.252,2.7l1.648,3.516a.313.313,0,0,1-.148.412l-3.449,1.9a2.686,2.686,0,0,0,0,4.722l3.449,1.9a.313.313,0,0,1,.148.412l-1.646,3.515a2.644,2.644,0,0,0,.25,2.7,2.756,2.756,0,0,0,2.548,1.124l3.932-.446a.364.364,0,0,1,.407.269l.779,3.788A2.687,2.687,0,0,0,66,35.432a2.814,2.814,0,0,0,.879.142,2.712,2.712,0,0,0,1.446-.42v9.9h-6.4l1.116-.818a4.168,4.168,0,0,0,.9-5.826l-.027-.036a4.193,4.193,0,0,0-5.757-.89l-10.6,7.57H29.2a1.186,1.186,0,0,0-1.186,1.186V69.955A1.186,1.186,0,0,0,29.2,71.14H74.841a4.147,4.147,0,0,0,3.379-6.556,4.145,4.145,0,0,0,1.332-5.708q-.07-.112-.146-.22a4.145,4.145,0,0,0,.709-6.485,4.148,4.148,0,0,0-2.9-7.114H75.434V35.131a2.721,2.721,0,0,0,2.325.3A2.687,2.687,0,0,0,79.577,33.4l.779-3.787a.367.367,0,0,1,.407-.269l3.932.446a2.745,2.745,0,0,0,2.547-1.122,2.646,2.646,0,0,0,.252-2.7l-1.648-3.516a.313.313,0,0,1,.148-.412l3.449-1.9A2.686,2.686,0,0,0,90.521,16.506ZM42.237,68.769H30.381V47.428H42.237ZM77.213,47.428a1.778,1.778,0,1,1,0,3.557,1.186,1.186,0,1,0,0,2.371,1.778,1.778,0,1,1,0,3.557H76.027a1.186,1.186,0,0,0,0,2.371,1.778,1.778,0,1,1,0,3.557H74.841a1.186,1.186,0,1,0,0,2.371,1.778,1.778,0,1,1,0,3.557H44.608V47.428h3.319a1.183,1.183,0,0,0,.689-.221l10.908-7.792a1.8,1.8,0,0,1,2.124,2.9l-.017.013L57.6,45.287a1.186,1.186,0,0,0,.7,2.142H77.213Zm-6.521-2.371V33.08l.926-.833a.4.4,0,0,1,.519,0l.926.833V45.057Zm17.752-27.13a.316.316,0,0,1-.145.145l-3.449,1.9a2.7,2.7,0,0,0-1.152,3.5l1.647,3.515a.289.289,0,0,1-.029.309.373.373,0,0,1-.354.149l-3.931-.446a2.725,2.725,0,0,0-3,2.148l-.779,3.787a.331.331,0,0,1-.236.252.386.386,0,0,1-.384-.077l-2.911-2.618a2.756,2.756,0,0,0-3.69,0L67.122,33.1a.383.383,0,0,1-.386.077.331.331,0,0,1-.236-.251l-.779-3.788a2.713,2.713,0,0,0-2.675-2.166,2.883,2.883,0,0,0-.322.018l-3.931.446a.362.362,0,0,1-.355-.15.287.287,0,0,1-.029-.308l1.647-3.516A2.7,2.7,0,0,0,58.9,19.97l-3.449-1.9a.316.316,0,0,1,0-.567l3.449-1.9a2.7,2.7,0,0,0,1.152-3.5L58.409,8.6a.289.289,0,0,1,.029-.309.365.365,0,0,1,.354-.149l3.931.446a2.714,2.714,0,0,0,2.993-2.126l.857-3.809a.32.32,0,0,1,.547-.175l2.911,2.618a2.756,2.756,0,0,0,3.69,0l2.911-2.618a.389.389,0,0,1,.386-.077.331.331,0,0,1,.236.251l.779,3.788a2.721,2.721,0,0,0,3,2.148l3.931-.446a.363.363,0,0,1,.355.15.287.287,0,0,1,.029.308L83.7,12.111a2.7,2.7,0,0,0,1.152,3.495L88.3,17.5A.316.316,0,0,1,88.444,17.927Z" transform="translate(-28.01 -0.001)"/></g></g><g transform="translate(62.393 8.303)"><g transform="translate(0)"><path class="d" d="M269.495,56.024a9.485,9.485,0,1,0,9.485,9.485A9.485,9.485,0,0,0,269.495,56.024Zm0,13.042a1.186,1.186,0,0,1-1.186-1.186h-2.371a3.551,3.551,0,0,0,2.371,3.338v1.3a7.1,7.1,0,0,1,0-14.013v1.3a3.551,3.551,0,0,0-2.371,3.338c0,2.5,2,3.127,3.2,3.5,1.338.417,1.54.58,1.54,1.242A1.186,1.186,0,0,1,269.495,69.066Zm1.186,3.45v-1.3a3.551,3.551,0,0,0,2.371-3.338c0-2.506-2.007-3.131-3.205-3.505-1.336-.416-1.537-.578-1.537-1.237a1.186,1.186,0,0,1,2.371,0h2.371A3.551,3.551,0,0,0,270.68,59.8V58.5a7.1,7.1,0,0,1,0,14.013Z" transform="translate(-260.01 -56.024)"/></g></g></g></svg>