<svg xmlns="http://www.w3.org/2000/svg" xmlns:xlink="http://www.w3.org/1999/xlink" width="170" height="56" viewBox="0 0 170 56"><defs><style>.a{fill:none;}.b{clip-path:url(#a);}.c{fill:url(#b);}.d{fill:url(#d);}.e{fill:url(#f);}.f{fill:url(#h);}.g{fill:#f9f9f9;}.h{fill:#f9f9fa;}</style><clipPath id="a"><path class="a" d="M36.38,23.068l-7.7-4.479L13.824,9.954c-.826-.479-1.646-.188-1.646.811V45.944c0,.75.588,1.075,1.3.657l15.195-8.837,7.7-4.475,7.4-4.3c.867-.507.785-1.2.051-1.6S36.38,23.068,36.38,23.068Z"/></clipPath><linearGradient id="b" x1="17.997" y1="4.553" x2="17.997" y2="4.909" gradientUnits="objectBoundingBox"><stop offset="0" stop-color="#257cb0"/><stop offset="0.29" stop-color="#4a93b5"/><stop offset="0.77" stop-color="#78bcbb"/><stop offset="1" stop-color="#89cfbd"/></linearGradient><linearGradient id="d" x1="14.032" y1="9.218" x2="14.388" y2="9.218" gradientUnits="objectBoundingBox"><stop offset="0" stop-color="#52c1ad"/><stop offset="1" stop-color="#dee89a"/></linearGradient><linearGradient id="f" x1="14.224" y1="8.402" x2="14.224" y2="8.758" gradientUnits="objectBoundingBox"><stop offset="0" stop-color="#ec413d"/><stop offset="0.17" stop-color="#da4452"/><stop offset="0.57" stop-color="#b0487a"/><stop offset="0.86" stop-color="#954a92"/><stop offset="1" stop-color="#8a4a9d"/></linearGradient><linearGradient id="h" x1="23.711" y1="16.072" x2="23.711" y2="16.427" gradientUnits="objectBoundingBox"><stop offset="0" stop-color="#f58879"/><stop offset="0.12" stop-color="#f69079"/><stop offset="0.71" stop-color="#fcb877"/><stop offset="1" stop-color="#fec874"/></linearGradient></defs><g transform="translate(0 -0.003)"><path d="M170,48.436A7.541,7.541,0,0,1,162.486,56H7.514A7.544,7.544,0,0,1,0,48.436V7.571A7.544,7.544,0,0,1,7.514,0H162.486A7.541,7.541,0,0,1,170,7.571h0V48.436Z"/><g class="b"><path class="c" d="M12.165,9.122v38.1L31.243,28.173Z"/></g><g class="b"><path class="d" d="M36.366,23.054l-7.7-4.475-16.5-9.594v.137L31.243,28.173Z"/></g><g class="b"><path class="e" d="M12.165,47.221v.137l16.5-9.594,7.7-4.475-5.124-5.116Z"/></g><g class="b"><path class="f" d="M36.366,23.054l-5.124,5.119,5.124,5.116,8.8-5.119Z"/></g><path class="g" d="M129.4,38.452a4.41,4.41,0,0,1-1.829-.373,3.456,3.456,0,0,1-1.391-1.144h-.112a13.99,13.99,0,0,1,.112,1.712V42.9H124.63V27.933h1.261l.214,1.414h.075a3.617,3.617,0,0,1,1.394-1.226,4.213,4.213,0,0,1,1.822-.377,3.779,3.779,0,0,1,3.148,1.4,6.212,6.212,0,0,1,1.108,3.938,6.192,6.192,0,0,1-1.125,3.955A3.786,3.786,0,0,1,129.4,38.452Zm-.224-9.375a2.747,2.747,0,0,0-2.275.877,4.521,4.521,0,0,0-.721,2.791v.342A5.2,5.2,0,0,0,126.9,36.2a2.732,2.732,0,0,0,2.312.938,2.4,2.4,0,0,0,2.084-1.082,5.174,5.174,0,0,0,.751-2.989,5.04,5.04,0,0,0-.751-2.962,2.473,2.473,0,0,0-2.122-1.031Z"/><path class="g" d="M137.258,38.264H135.7V23.6h1.554Z"/><path class="g" d="M146.2,38.264l-.309-1.469h-.075a4.3,4.3,0,0,1-1.53,1.315,4.627,4.627,0,0,1-1.9.342,3.413,3.413,0,0,1-2.38-.791,2.894,2.894,0,0,1-.867-2.253q0-3.126,4.967-3.28l1.741-.058v-.64a2.624,2.624,0,0,0-.52-1.794,2.128,2.128,0,0,0-1.659-.579,6.729,6.729,0,0,0-2.9.791l-.476-1.195A7.268,7.268,0,0,1,141.95,28a7.139,7.139,0,0,1,1.809-.236,3.9,3.9,0,0,1,2.72.818,3.417,3.417,0,0,1,.884,2.63V38.26H146.2Zm-3.509-1.1a3.142,3.142,0,0,0,2.278-.8,2.978,2.978,0,0,0,.83-2.243v-.931l-1.554.065a5.635,5.635,0,0,0-2.672.582,1.749,1.749,0,0,0-.819,1.6,1.615,1.615,0,0,0,.51,1.291,2.1,2.1,0,0,0,1.418.442Z"/><path class="g" d="M148.24,27.937h1.666l2.247,5.889a22.671,22.671,0,0,1,.918,2.91h.075q.122-.483.51-1.644t2.54-7.156h1.666L153.442,39.7a5.913,5.913,0,0,1-1.53,2.476,3.24,3.24,0,0,1-2.145.729,6.213,6.213,0,0,1-1.4-.161V41.489a5.407,5.407,0,0,0,1.153.113,2.376,2.376,0,0,0,2.285-1.808l.571-1.469Z"/><path class="g" d="M100.64,28.889a3.651,3.651,0,0,1,1.523,2.917,3.7,3.7,0,0,1-1.8,3.082,1.528,1.528,0,0,0-.6,1.058,1.185,1.185,0,0,0,.558.928l.772.6c.945.8,1.8,1.534,1.8,3.027,0,2.03-1.952,4.081-5.641,4.081-3.111,0-4.61-1.489-4.61-3.082a3.111,3.111,0,0,1,1.652-2.637,9.145,9.145,0,0,1,4.08-.993A2.268,2.268,0,0,1,97.73,36.4a1.957,1.957,0,0,1,.214-.842c-.238.021-.473.045-.68.045a3.406,3.406,0,0,1-3.56-3.39,3.9,3.9,0,0,1,1.36-2.893,5.758,5.758,0,0,1,3.842-1.188h4.42l-1.36.777H100.64Zm-1.523,9.587a3.338,3.338,0,0,0-.517,0,8.522,8.522,0,0,0-2.254.342A2.414,2.414,0,0,0,94.5,41.044c0,1.541,1.482,2.637,3.777,2.637,2.057,0,3.152-1,3.152-2.335.02-1.113-.69-1.691-2.319-2.869Zm.622-4.109a2.195,2.195,0,0,0,.534-1.578c0-1.555-.921-3.975-2.7-3.975a2,2,0,0,0-1.5.712,2.509,2.509,0,0,0-.473,1.6c0,1.448.836,3.845,2.683,3.845a2.188,2.188,0,0,0,1.455-.6Z"/><path class="g" d="M87.128,38.133a5.067,5.067,0,0,1-5.223-4.91c0-.06,0-.121,0-.181A5.323,5.323,0,0,1,87.451,27.8a5.021,5.021,0,0,1,5.1,4.943c0,.048,0,.1,0,.145A5.222,5.222,0,0,1,87.128,38.133ZM89.8,36.387a3.921,3.921,0,0,0,.643-2.4c0-1.9-.9-5.52-3.556-5.52a2.971,2.971,0,0,0-1.928.736,3.283,3.283,0,0,0-.986,2.633c0,2.133,1.051,5.646,3.641,5.646A2.713,2.713,0,0,0,89.8,36.394Z"/><path class="g" d="M75.521,38.133a5.067,5.067,0,0,1-5.223-4.91c0-.06,0-.121,0-.181A5.323,5.323,0,0,1,75.844,27.8a5.021,5.021,0,0,1,5.116,4.926q0,.081,0,.162A5.248,5.248,0,0,1,75.521,38.133ZM78.2,36.387a3.926,3.926,0,0,0,.643-2.4c0-1.9-.9-5.52-3.556-5.52a2.971,2.971,0,0,0-1.928.736,3.283,3.283,0,0,0-.986,2.633c0,2.133,1.047,5.646,3.641,5.646a2.73,2.73,0,0,0,2.19-1.092Z"/><path class="g" d="M68.66,37.791l-3.08.716a22.666,22.666,0,0,1-3.553.366c-5.943,0-8.2-4.4-8.2-7.848,0-4.2,3.206-8.108,8.7-8.108a12.322,12.322,0,0,1,3.295.455,8.376,8.376,0,0,1,2.842,1.346L66.868,26.43l-.755.171.537-.866A6.132,6.132,0,0,0,62.043,23.7c-3.4,0-5.964,2.6-5.964,6.4A7.643,7.643,0,0,0,63.7,38.007a6.372,6.372,0,0,0,2.72-.541V33.987l-3.25.175,1.72-.935h4.566l-.558.541a.508.508,0,0,0-.214.342c-.024.2-.044.825-.044,1.027v2.654h.017Z"/><path class="g" d="M107.44,37.178c-.711-.065-.86-.2-.86-1.027V23.725c.088-.76.3-.89.969-1.281h-3.08l-1.615.781H104.5V36.613c0,.431-.085.5-.581,1.147h3.811l.8-.476C108.171,37.243,107.8,37.223,107.44,37.178Z"/><path class="g" d="M116.2,37.377c-.235.13-.469.281-.7.387a4.954,4.954,0,0,1-2.077.411,4.547,4.547,0,0,1-2.842-.839,5.593,5.593,0,0,1-2.179-4.544,4.862,4.862,0,0,1,4.9-4.975,4.134,4.134,0,0,1,2.2.6,3.564,3.564,0,0,1,1.5,2.13L111.969,32.6l-1.646.13c.534,2.739,2.38,4.328,4.42,4.328a5.5,5.5,0,0,0,2.608-.753Zm-2.009-6.434c.4-.151.619-.281.619-.582a2.129,2.129,0,0,0-2.118-1.852c-.857,0-2.458.685-2.458,2.993,0,.366.044.753.065,1.144Z"/><path class="g" d="M118.262,25.3v1.421h-.17V25.3h-.452v-.147h1.105V25.3h-.483Z"/><path class="g" d="M120.187,26.721V25.286h0l-.435,1.435h-.133l-.439-1.435h0v1.435H119V25.153h.265l.4,1.267h0l.391-1.267h.272v1.568h-.139Z"/><path class="h" d="M59.408,15.822h-1.4a9.344,9.344,0,0,0-.4-1.647h-2.02a8.551,8.551,0,0,0-.411,1.647H53.866q0-.171,1.02-2.818a22.3,22.3,0,0,0,1.02-2.914h1.652a24.35,24.35,0,0,0,.925,2.873A25.361,25.361,0,0,1,59.408,15.822Zm-2.02-2.486a24.9,24.9,0,0,1-.748-2.455h-.071q0,.171-.772,2.455Z"/><path class="h" d="M65.042,15.822H63.964a10.687,10.687,0,0,0-1.2-1.9,10.649,10.649,0,0,1-1.435-2.486h-.071a15.634,15.634,0,0,1,.109,1.743q0,1.085.061,2.65H60.353q.065-1.37.065-3t-.065-2.739h1.3a8.335,8.335,0,0,0,1.078,1.863A10.936,10.936,0,0,1,64.049,14.3h.065a16.727,16.727,0,0,1-.105-1.76q0-1.192-.061-2.448h1.091q-.061,1.092-.061,2.739T65.042,15.822Z"/><path class="h" d="M71.376,12.758a3.26,3.26,0,0,1-.8,2.181,2.769,2.769,0,0,1-2.241.938q-.646,0-1.782-.051.058-1.329.058-3,0-1.6-.058-2.739h1.809a2.938,2.938,0,0,1,2.288.791A2.751,2.751,0,0,1,71.376,12.758Zm-1.193.188a2.132,2.132,0,0,0-.49-1.424,1.85,1.85,0,0,0-1.5-.579,4.505,4.505,0,0,0-.517.041q.044.88.044,1.839,0,1.051.044,2.085a2.848,2.848,0,0,0,.568.058,1.644,1.644,0,0,0,1.391-.589A2.277,2.277,0,0,0,70.183,12.946Z"/><path class="h" d="M77.217,15.822H75.925a8.656,8.656,0,0,0-.779-1.924,1.017,1.017,0,0,0-.874-.366H73.78q0,1.13.041,2.284H72.607q.058-1.329.058-3,0-1.6-.058-2.739h2.074q2.006,0,2.006,1.37a1.548,1.548,0,0,1-1.146,1.527v.065a1.364,1.364,0,0,1,.772.685A15.371,15.371,0,0,1,77.217,15.822Zm-1.639-4.054q0-.877-1.119-.877a3.834,3.834,0,0,0-.724.062q.047.685.048,1.777h.408Q75.579,12.744,75.579,11.768Z"/><path class="h" d="M83.48,12.85a3.172,3.172,0,0,1-.823,2.239,2.657,2.657,0,0,1-2.04.89,2.558,2.558,0,0,1-1.931-.815,2.884,2.884,0,0,1-.779-2.075,3.174,3.174,0,0,1,.823-2.239,2.657,2.657,0,0,1,2.04-.89,2.562,2.562,0,0,1,1.931.815A2.884,2.884,0,0,1,83.48,12.85Zm-1.207.127a2.286,2.286,0,0,0-.466-1.493,1.434,1.434,0,0,0-1.153-.572,1.33,1.33,0,0,0-1.085.575,2.314,2.314,0,0,0-.445,1.455,2.278,2.278,0,0,0,.469,1.489,1.434,1.434,0,0,0,1.153.575,1.33,1.33,0,0,0,1.085-.579,2.312,2.312,0,0,0,.449-1.452Z"/><path class="h" d="M85.952,15.822H84.714q.058-1.37.058-3t-.058-2.739h1.238q-.058,1.109-.058,2.739T85.952,15.822Z"/><path class="h" d="M92.286,12.758a3.26,3.26,0,0,1-.8,2.181,2.769,2.769,0,0,1-2.23.931q-.646,0-1.782-.051.058-1.329.058-3,0-1.6-.058-2.739h1.812a2.938,2.938,0,0,1,2.288.791A2.751,2.751,0,0,1,92.286,12.758Zm-1.193.188a2.132,2.132,0,0,0-.49-1.424,1.85,1.85,0,0,0-1.5-.579,4.5,4.5,0,0,0-.517.041q.044.88.044,1.839,0,1.051.044,2.085a2.848,2.848,0,0,0,.568.058,1.644,1.644,0,0,0,1.391-.589A2.277,2.277,0,0,0,91.093,12.946Z"/><path class="h" d="M100.688,15.822H99.28a9.314,9.314,0,0,0-.4-1.647h-2.02a8.551,8.551,0,0,0-.411,1.647H95.135q0-.171,1.02-2.818a22.3,22.3,0,0,0,1.02-2.914h1.652a24.5,24.5,0,0,0,.925,2.873A25.462,25.462,0,0,1,100.688,15.822Zm-2.02-2.486a24.99,24.99,0,0,1-.748-2.455h-.071q0,.171-.772,2.455Z"/><path class="h" d="M105.784,11.594a1.716,1.716,0,0,1-.775,1.555,3.434,3.434,0,0,1-1.9.5h-.292q0,.828.048,2.181h-1.228q.058-1.27.058-3,0-1.585-.058-2.739h2.176a2.487,2.487,0,0,1,1.4.38A1.283,1.283,0,0,1,105.784,11.594Zm-1.129.243q0-.941-1.241-.942a3.518,3.518,0,0,0-.656.065q.047.832.048,1.883h.255q1.6.007,1.6-1.01Z"/><path class="h" d="M111.027,11.594a1.716,1.716,0,0,1-.775,1.555,3.433,3.433,0,0,1-1.9.5h-.292q0,.828.048,2.181h-1.227q.058-1.27.058-3,0-1.585-.058-2.739h2.176a2.488,2.488,0,0,1,1.4.38A1.283,1.283,0,0,1,111.027,11.594Zm-1.129.243q0-.941-1.241-.942a3.518,3.518,0,0,0-.656.065q.047.832.048,1.883h.255q1.595.007,1.595-1.01Z"/><path class="h" d="M119.6,12.85a3.172,3.172,0,0,1-.823,2.239,2.657,2.657,0,0,1-2.04.89,2.558,2.558,0,0,1-1.931-.815,2.887,2.887,0,0,1-.779-2.075,3.174,3.174,0,0,1,.823-2.239,2.657,2.657,0,0,1,2.04-.89,2.562,2.562,0,0,1,1.931.815A2.884,2.884,0,0,1,119.6,12.85Zm-1.207.127a2.286,2.286,0,0,0-.466-1.493,1.434,1.434,0,0,0-1.153-.572,1.33,1.33,0,0,0-1.085.575,2.314,2.314,0,0,0-.445,1.455,2.278,2.278,0,0,0,.469,1.489,1.434,1.434,0,0,0,1.153.575,1.327,1.327,0,0,0,1.085-.579,2.313,2.313,0,0,0,.445-1.452Z"/><path class="h" d="M125.521,15.822H124.44a10.688,10.688,0,0,0-1.2-1.9,10.635,10.635,0,0,1-1.435-2.486h-.085a15.634,15.634,0,0,1,.109,1.743q0,1.085.061,2.65h-1.074q.065-1.37.065-3t-.065-2.739h1.3a8.335,8.335,0,0,0,1.078,1.863,10.952,10.952,0,0,1,1.319,2.345h.065a16.727,16.727,0,0,1-.105-1.76q0-1.192-.061-2.448H125.5q-.061,1.092-.061,2.739T125.521,15.822Z"/></g></svg>