<?xml version="1.0" encoding="utf-8"?>
<!-- Generator: Adobe Illustrator 16.0.0, SVG Export Plug-In . SVG Version: 6.00 Build 0)  -->
<!DOCTYPE svg PUBLIC "-//W3C//DTD SVG 1.1//EN" "http://www.w3.org/Graphics/SVG/1.1/DTD/svg11.dtd">
<svg version="1.1" id="Layer_1" xmlns="http://www.w3.org/2000/svg" xmlns:xlink="http://www.w3.org/1999/xlink" x="0px" y="0px"
	 width="35.277px" height="35.275px" viewBox="0 0 35.277 35.275" enable-background="new 0 0 35.277 35.275" xml:space="preserve">
<g transform="translate(0 -0.01)">
	<g transform="translate(0 0.01)">
		<g transform="translate(0 0)">
			<path fill="#454BE9" d="M13.349,30.556c-0.27-0.181-0.634-0.11-0.816,0.157c-0.727,1.077-2.188,1.361-3.265,0.635
				c-1.077-0.726-1.361-2.188-0.636-3.265c0.169-0.251,0.385-0.466,0.636-0.635c0.268-0.184,0.337-0.55,0.153-0.817
				c-0.182-0.267-0.545-0.337-0.813-0.157c-1.613,1.094-2.033,3.287-0.94,4.9c1.094,1.612,3.287,2.033,4.9,0.939
				c0.37-0.251,0.688-0.569,0.939-0.939c0.183-0.27,0.111-0.635-0.157-0.816C13.35,30.557,13.349,30.557,13.349,30.556z"/>
			<path fill="#454BE9" d="M23.518,1.175c-2.809-0.008-5.503,1.108-7.483,3.1l-5.82,5.82c-0.237,0.221-0.251,0.593-0.03,0.831
				c0.222,0.238,0.594,0.252,0.831,0.03c0.011-0.01,0.021-0.02,0.03-0.03l5.82-5.82c3.772-3.572,9.728-3.41,13.3,0.362
				c3.437,3.628,3.437,9.31,0,12.938l-7.483,7.483c-0.18,0.179-0.225,0.452-0.111,0.678c0.717,1.436,0.365,4.334-0.65,5.35
				l-1.936,1.936L1.419,15.286l1.937-1.937c1-1,3.806-1.354,5.267-0.688l12.4,12.399c0.237,0.222,0.609,0.208,0.831-0.03
				c0.209-0.226,0.209-0.575,0-0.801L9.383,11.758c-0.044-0.045-0.096-0.082-0.152-0.11c-1.89-0.945-5.337-0.5-6.706,0.87
				L0.172,14.87c-0.229,0.229-0.229,0.601-0.001,0.83c0.001,0,0.001,0,0.001,0.001l19.4,19.399c0.229,0.229,0.602,0.229,0.831,0
				l2.352-2.352c1.277-1.277,1.752-4.365,1.041-6.309l7.2-7.199c4.134-4.133,4.134-10.834,0.002-14.967
				c-1.985-1.985-4.678-3.101-7.484-3.101L23.518,1.175z"/>
			<path fill="#454BE9" d="M34.588,0.69c-0.919-0.917-2.407-0.917-3.326,0l-0.775,0.776c-0.238,0.221-0.252,0.593-0.03,0.831
				c0.221,0.238,0.593,0.252,0.831,0.03c0.01-0.01,0.021-0.02,0.03-0.03l0.775-0.776c0.454-0.465,1.198-0.474,1.663-0.02
				s0.474,1.198,0.021,1.663c-0.007,0.007-0.014,0.014-0.021,0.02L32.981,3.96c-0.238,0.221-0.252,0.593-0.031,0.831
				c0.222,0.237,0.594,0.251,0.831,0.03c0.011-0.01,0.021-0.02,0.031-0.03l0.775-0.775c0.919-0.918,0.919-2.406,0.002-3.324
				C34.589,0.691,34.589,0.691,34.588,0.69z"/>
			<path fill="#454BE9" d="M20.806,6.474c0.085,0,0.169-0.019,0.246-0.055c1.555-0.713,3.342-0.719,4.9-0.015
				c0.296,0.135,0.645,0.004,0.779-0.292s0.005-0.645-0.291-0.779l0,0c-1.872-0.846-4.019-0.839-5.885,0.018
				c-0.295,0.136-0.424,0.485-0.288,0.78c0.096,0.209,0.306,0.343,0.535,0.342L20.806,6.474z"/>
		</g>
	</g>
</g>
</svg>
