<svg xmlns="http://www.w3.org/2000/svg" width="22" height="22" viewBox="0 0 22 22"><defs><style>.a{fill:#fbbb00;}.b{fill:#518ef8;}.c{fill:#28b446;}.d{fill:#f14336;}</style></defs><g transform="translate(-889 -765)"><path class="a" d="M4.876,7.354,4.11,10.212l-2.8.059A11.019,11.019,0,0,1,1.23,0h0L3.722.457,4.814,2.934a6.565,6.565,0,0,0,.062,4.42Z" transform="translate(889 770.941)"/><path class="b" d="M10.566,0a11.012,11.012,0,0,1,.192,2.055,11.021,11.021,0,0,1-.241,2.3,11,11,0,0,1-3.873,6.281h0l-3.139-.16L3.061,7.7A6.556,6.556,0,0,0,5.882,4.352H0V0H10.566Z" transform="translate(900.242 773.945)"/><path class="c" d="M16.575,6.283h0A10.954,10.954,0,0,1,9.689,8.705,11,11,0,0,1,0,2.918L3.565,0A6.541,6.541,0,0,0,9.689,4.244a6.5,6.5,0,0,0,3.3-.895Z" transform="translate(890.311 778.295)"/><path class="d" d="M16.791,2.532,13.228,5.45A6.541,6.541,0,0,0,3.584,8.875L0,5.941H0A11,11,0,0,1,16.791,2.532Z" transform="translate(890.23 765)"/></g></svg>