<svg xmlns="http://www.w3.org/2000/svg" xmlns:xlink="http://www.w3.org/1999/xlink" width="204.412" height="54.882" viewBox="0 0 204.412 54.882">
  <defs>
    <clipPath id="clip-path">
      <rect id="Rectangle_64" data-name="Rectangle 64" width="5.251" height="3.168" transform="translate(10.995 3.822)" fill="#032291"/>
    </clipPath>
    <clipPath id="clip-path-2">
      <path id="Path_134" data-name="Path 134" d="M10.977,9.949V38.91A10.978,10.978,0,0,1,0,49.888v5.22a16.2,16.2,0,0,0,16.2-16.2V9.949Z" fill="#032291"/>
    </clipPath>
    <clipPath id="clip-path-3">
      <path id="Path_136" data-name="Path 136" d="M29.228.989A24.181,24.181,0,0,0,18.292,9.916V26.752a25.746,25.746,0,0,0,15.462-5.143A16.68,16.68,0,0,0,41.616,7.8,6.44,6.44,0,0,0,39.29,2.077,10.866,10.866,0,0,0,29.228.989" fill="#032291"/>
    </clipPath>
    <clipPath id="clip-path-4">
      <path id="Path_138" data-name="Path 138" d="M18.292,28.508l.022,8.8a9.3,9.3,0,0,0,2.262,2.666,11.86,11.86,0,0,0,8.616,3.376,9.67,9.67,0,0,0,5.482-2.162A5.3,5.3,0,0,0,36.359,37.1a6.817,6.817,0,0,0-1.49-4.629A20.384,20.384,0,0,0,27,27.272a14.122,14.122,0,0,1-8.712,1.236" fill="#032291"/>
    </clipPath>
  </defs>
  <g id="logo_update" data-name="logo update" transform="translate(0 -0.227)">
    <g id="Group_374" data-name="Group 374">
      <g id="Group_367" data-name="Group 367">
        <rect id="Rectangle_62" data-name="Rectangle 62" width="5.251" height="3.168" transform="translate(10.995 3.822)" fill="#032291"/>
        <g id="Group_366" data-name="Group 366" clip-path="url(#clip-path)">
          <rect id="Rectangle_63" data-name="Rectangle 63" width="5.953" height="5.953" transform="translate(9.411 5.407) rotate(-45.004)" fill="#032291"/>
        </g>
      </g>
      <g id="Group_369" data-name="Group 369">
        <path id="Path_133" data-name="Path 133" d="M10.977,9.949V38.91A10.978,10.978,0,0,1,0,49.888v5.22a16.2,16.2,0,0,0,16.2-16.2V9.949Z" fill="#032291"/>
        <g id="Group_368" data-name="Group 368" clip-path="url(#clip-path-2)">
          <rect id="Rectangle_65" data-name="Rectangle 65" width="16.2" height="45.16" transform="translate(0 9.949)" fill="#032291"/>
        </g>
      </g>
      <g id="Group_371" data-name="Group 371">
        <path id="Path_135" data-name="Path 135" d="M29.228.989A24.181,24.181,0,0,0,18.292,9.916V26.752a25.746,25.746,0,0,0,15.462-5.143A16.68,16.68,0,0,0,41.616,7.8,6.44,6.44,0,0,0,39.29,2.077,10.866,10.866,0,0,0,29.228.989" fill="#032291"/>
        <g id="Group_370" data-name="Group 370" clip-path="url(#clip-path-3)">
          <rect id="Rectangle_66" data-name="Rectangle 66" width="35.43" height="35.43" transform="translate(5.027 13.493) rotate(-45.002)" fill="#032291"/>
        </g>
      </g>
      <g id="Group_373" data-name="Group 373">
        <path id="Path_137" data-name="Path 137" d="M18.292,28.508l.022,8.8a9.3,9.3,0,0,0,2.262,2.666,11.86,11.86,0,0,0,8.616,3.376,9.67,9.67,0,0,0,5.482-2.162A5.3,5.3,0,0,0,36.359,37.1a6.817,6.817,0,0,0-1.49-4.629A20.384,20.384,0,0,0,27,27.272a14.122,14.122,0,0,1-8.712,1.236" fill="#032291"/>
        <g id="Group_372" data-name="Group 372" clip-path="url(#clip-path-4)">
          <rect id="Rectangle_67" data-name="Rectangle 67" width="24.266" height="24.266" transform="matrix(0.707, -0.707, 0.707, 0.707, 10.212, 35.353)" fill="#032291"/>
        </g>
      </g>
    </g>
    <g id="Group_375" data-name="Group 375">
      <path id="Path_139" data-name="Path 139" d="M59.742,37.776a3.554,3.554,0,0,1-.511,2.219,1.9,1.9,0,0,1-1.533.6,5.287,5.287,0,0,1-2.219-.6v4.184a13.177,13.177,0,0,0,4.005.8,5.844,5.844,0,0,0,3.124-.8,4.641,4.641,0,0,0,1.9-2.287,12.772,12.772,0,0,0,.6-4.506V15.505H59.742Z" fill="#ff5851"/>
      <path id="Path_140" data-name="Path 140" d="M105.326,15.96a9.129,9.129,0,0,0-3.615.721,10.1,10.1,0,0,0-3.142,2.159V8.33H93.248V37.685h5.321v-2.24a10.512,10.512,0,0,0,3.162,2.134,9,9,0,0,0,3.437.65,9.555,9.555,0,0,0,7.169-3.183,11.03,11.03,0,0,0,3.025-7.913,11.3,11.3,0,0,0-2.928-8.039A9.355,9.355,0,0,0,105.326,15.96Zm3.014,15.633a5.465,5.465,0,0,1-4.133,1.77A5.574,5.574,0,0,1,100,31.62a6.322,6.322,0,0,1-1.67-4.564A6.14,6.14,0,0,1,100,22.58a5.62,5.62,0,0,1,4.2-1.714,5.5,5.5,0,0,1,4.164,1.742,6.24,6.24,0,0,1,1.649,4.467A6.3,6.3,0,0,1,108.34,31.593Z" fill="#ff5851"/>
      <path id="Path_141" data-name="Path 141" d="M134.413,18.84a9.846,9.846,0,0,0-3.122-2.159,9.084,9.084,0,0,0-3.608-.721,9.344,9.344,0,0,0-7.1,3.134,11.316,11.316,0,0,0-2.925,8.041,11.043,11.043,0,0,0,3.022,7.911,9.542,9.542,0,0,0,7.161,3.183,8.887,8.887,0,0,0,3.423-.65,10.556,10.556,0,0,0,3.15-2.134v2.24h5.361V16.5h-5.361Zm-1.429,12.78a5.539,5.539,0,0,1-4.19,1.743,5.435,5.435,0,0,1-4.118-1.77A6.31,6.31,0,0,1,123,27.075a6.249,6.249,0,0,1,1.643-4.467,5.441,5.441,0,0,1,4.13-1.741,5.61,5.61,0,0,1,4.209,1.713,6.144,6.144,0,0,1,1.664,4.476A6.326,6.326,0,0,1,132.984,31.62Z" fill="#ff5851"/>
      <path id="Path_142" data-name="Path 142" d="M164.07,8.7H158.71v7.805h-2.752V21.08h2.752V37.685h5.361V21.08h3.183V16.505H164.07Z" fill="#ff5851"/>
      <path id="Path_143" data-name="Path 143" d="M180.177,15.962a10.634,10.634,0,0,0-7.907,3.2,11.006,11.006,0,0,0-3.154,8.048,10.647,10.647,0,0,0,3.164,7.874,11.106,11.106,0,0,0,8.19,3.145,12.76,12.76,0,0,0,5.6-1.14,10.631,10.631,0,0,0,4.045-3.51l-4.518-2.1a7.176,7.176,0,0,1-5.165,2.082,6.293,6.293,0,0,1-4.135-1.334,5.672,5.672,0,0,1-1.992-3.592h17.223l.019-1.013a11.513,11.513,0,0,0-3.16-8.457A11.03,11.03,0,0,0,180.177,15.962Zm-5.638,8.487a6.91,6.91,0,0,1,1.966-2.745,6.451,6.451,0,0,1,3.935-1.247,6.112,6.112,0,0,1,3.631,1.108,5.342,5.342,0,0,1,2.094,2.884Z" fill="#ff5851"/>
      <path id="Path_144" data-name="Path 144" d="M150.516,16.777a5.719,5.719,0,0,0-1.982,2.394V16.5h-4.6v21.18h5.323V29.12l-.019-1.031q0-4.442.852-5.959a2.461,2.461,0,0,1,2.092-1.517,3.694,3.694,0,0,1,1.551.467V15.992a4.6,4.6,0,0,0-.508-.032A4.83,4.83,0,0,0,150.516,16.777Z" fill="#ff5851"/>
      <path id="Path_145" data-name="Path 145" d="M203.9,15.96a4.833,4.833,0,0,0-2.713.817,5.726,5.726,0,0,0-1.982,2.394V16.5h-4.595v21.18h5.322V29.12l-.019-1.031q0-4.442.853-5.959a2.456,2.456,0,0,1,2.091-1.517,3.7,3.7,0,0,1,1.552.467V15.992A4.683,4.683,0,0,0,203.9,15.96Z" fill="#ff5851"/>
      <path id="Path_146" data-name="Path 146" d="M84.144,17.459a11.41,11.41,0,0,0-5.685-1.5,11.156,11.156,0,0,0-11.08,11.154,11.088,11.088,0,0,0,11.1,11.115,11.4,11.4,0,0,0,5.714-1.468,10.829,10.829,0,0,0,4.1-4.077,11.069,11.069,0,0,0,1.5-5.609,10.967,10.967,0,0,0-5.648-9.616ZM82.716,31.551a5.577,5.577,0,0,1-4.189,1.735,5.514,5.514,0,0,1-4.161-1.714,6.2,6.2,0,0,1-1.642-4.478,6.084,6.084,0,0,1,1.661-4.409,5.955,5.955,0,0,1,8.361-.018,6.1,6.1,0,0,1,1.644,4.427A6.136,6.136,0,0,1,82.716,31.551Z" fill="#ff5851"/>
      <rect id="Rectangle_68" data-name="Rectangle 68" width="5.361" height="4.36" transform="translate(59.742 8.551)" fill="#ff5851"/>
    </g>
  </g>
</svg>
