<svg xmlns="http://www.w3.org/2000/svg" width="33" height="44" viewBox="0 0 33 44"><defs><style>.a{fill:#e84444;}</style></defs><path class="a" d="M29.334,44H3.667A3.671,3.671,0,0,1,0,40.333V3.667A3.671,3.671,0,0,1,3.667,0h19.25a.91.91,0,0,1,.648.268l9.167,9.167a.911.911,0,0,1,.269.648v30.25A3.671,3.671,0,0,1,29.334,44ZM3.667,1.833A1.835,1.835,0,0,0,1.833,3.667V40.333a1.835,1.835,0,0,0,1.833,1.833H29.334a1.835,1.835,0,0,0,1.833-1.833V11h-5.5A3.671,3.671,0,0,1,22,7.333v-5.5Zm20.166,1.3v4.2a1.835,1.835,0,0,0,1.833,1.833h4.2Z"/><path class="a" d="M2.75,22C1.428,22,0,21.186,0,19.872c0-1.81,1.932-2.725,4.857-4.11l.052-.025.076-.037c.567-.268,1.23-.583,1.939-.937.183-.092.382-.186.627-.294.273-.613.525-1.262.746-1.926l.063-.189c.456-1.367.861-2.585,1.208-3.641C8.085,6.788,7.333,5.12,7.333,3.755,7.333.651,8.829,0,10.084,0c1.65,0,2.749.624,2.749,3.667a19.876,19.876,0,0,1-1.212,4.666c.543.648,1.169,1.328,1.86,2.02a26.372,26.372,0,0,0,2.192,1.892,21.29,21.29,0,0,1,2.659-.327c1.19,0,3.667,0,3.667,2.167,0,1.1-.477,2.416-2.75,2.416-.865,0-2.68-1.255-4.05-2.309a37.207,37.207,0,0,0-6.292,1.7,16.142,16.142,0,0,1-3.145,4.494A4.857,4.857,0,0,1,2.75,22Zm3.258-4.755-.185.087-.017.008-.049.022-.046.022-.067.032c-1.874.888-3.812,1.806-3.812,2.456a1.444,1.444,0,0,0,.917.294C3.267,20.166,4.619,19.26,6.008,17.245ZM18.333,13.75c-.11,0-.3.015-.556.043a6.586,6.586,0,0,0,1.54.878c.85-.005.85-.176.85-.588C20.085,13.911,19.807,13.75,18.333,13.75Zm-7.377-3.389c-.234.706-.491,1.479-.774,2.326l-.146.437c-.057.172-.11.326-.167.483,1.054-.334,2.225-.642,3.481-.916-.623-.532-1.017-.895-1.165-1.043C11.73,11.193,11.328,10.772,10.956,10.361Zm-.872-8.528c-.321,0-.917,0-.917,1.922a5.587,5.587,0,0,0,1.1,2.775A14.207,14.207,0,0,0,11,3.667C11,1.833,10.732,1.833,10.084,1.833Z" transform="translate(5.923 15.231)"/></svg>