<svg xmlns="http://www.w3.org/2000/svg" width="66" height="65.998" viewBox="0 0 66 65.998"><defs><style>.a{fill:#fa5531;}.b{fill:#032291;}.c{fill:#3e3e43;}.d{fill:#fff;}</style></defs><g transform="translate(0 -0.009)"><circle class="a" cx="4.5" cy="4.5" r="4.5" transform="translate(7 26.024)"/><circle class="a" cx="4.5" cy="4.5" r="4.5" transform="translate(50 27.024)"/><circle class="b" cx="17" cy="17" r="17" transform="translate(16 16.024)"/><g transform="translate(0 13.707)"><path class="c" d="M59.417,127.186a5.393,5.393,0,0,0,.924-3.025v-1.034a5.422,5.422,0,0,0-9.252-3.84,19.08,19.08,0,0,0-36.178,0,5.422,5.422,0,0,0-9.252,3.84v1.034a5.393,5.393,0,0,0,.924,3.025A8.309,8.309,0,0,0,0,135.3v2.6a1.289,1.289,0,0,0,1.289,1.289h6.7a1.289,1.289,0,1,0,0-2.578H2.578V135.3a5.723,5.723,0,0,1,5.717-5.717h6.1a18.971,18.971,0,0,0,2.532,6.037L2.22,150.33a4.831,4.831,0,0,0,6.832,6.832l8.109-8.109a1.289,1.289,0,1,0-1.823-1.823l-8.108,8.109a2.253,2.253,0,1,1-3.186-3.186l14.438-14.438A19.069,19.069,0,0,0,51.6,129.585h6.1a5.723,5.723,0,0,1,5.717,5.717v1.306H51.3a1.289,1.289,0,0,0,0,2.578H64.711A1.289,1.289,0,0,0,66,137.9v-2.6A8.309,8.309,0,0,0,59.417,127.186ZM13.93,124.161a2.846,2.846,0,0,1-5.693,0v-1.034a2.846,2.846,0,1,1,5.693,0ZM33,141.853a16.5,16.5,0,1,1,16.5-16.5A16.519,16.519,0,0,1,33,141.853Zm24.763-17.692a2.846,2.846,0,0,1-5.693,0v-1.034a2.846,2.846,0,1,1,5.693,0Z" transform="translate(0 -106.275)"/></g><g transform="translate(19.078 18.864)"><path class="d" d="M161.922,146.275a13.915,13.915,0,0,0-9.547,24.045,1.29,1.29,0,0,0,.15.139,13.9,13.9,0,0,0,18.8,0,1.281,1.281,0,0,0,.15-.139,13.915,13.915,0,0,0-9.547-24.045Zm0,25.266A11.288,11.288,0,0,1,154.9,169.1a7.955,7.955,0,0,1,14.05,0A11.288,11.288,0,0,1,161.922,171.541Zm-2.716-11.96v-1a2.716,2.716,0,0,1,5.433,0v1a2.716,2.716,0,0,1-5.433,0Zm11.627,7.629a10.441,10.441,0,0,0-4.932-4.14,5.271,5.271,0,0,0,1.316-3.488v-1a5.295,5.295,0,1,0-10.589,0v1a5.271,5.271,0,0,0,1.316,3.488,10.442,10.442,0,0,0-4.932,4.14,11.344,11.344,0,1,1,17.821,0Z" transform="translate(-148 -146.275)"/></g><g transform="translate(18.408 50.837)"><path class="c" d="M145,394.687a1.288,1.288,0,1,0,.378.911A1.3,1.3,0,0,0,145,394.687Z" transform="translate(-142.8 -394.309)"/></g><g transform="translate(31.737 0.009)"><path class="c" d="M247.492.009A1.289,1.289,0,0,0,246.2,1.3V5.684a1.289,1.289,0,0,0,2.578,0V1.3A1.289,1.289,0,0,0,247.492.009Z" transform="translate(-246.203 -0.009)"/></g><g transform="translate(31.737 8.646)"><path class="c" d="M248.4,67.387a1.288,1.288,0,1,0,.378.911A1.3,1.3,0,0,0,248.4,67.387Z" transform="translate(-246.2 -67.009)"/></g><g transform="translate(39.488 4.688)"><path class="c" d="M310.8,36.684a1.289,1.289,0,0,0-1.823,0l-2.266,2.266a1.289,1.289,0,0,0,1.823,1.823l2.266-2.266A1.289,1.289,0,0,0,310.8,36.684Z" transform="translate(-306.331 -36.307)"/></g><g transform="translate(21.668 4.682)"><path class="c" d="M172.579,38.924l-2.287-2.287a1.289,1.289,0,0,0-1.823,1.823l2.288,2.287a1.289,1.289,0,0,0,1.823-1.823Z" transform="translate(-168.091 -36.259)"/></g></g></svg>