<svg xmlns="http://www.w3.org/2000/svg" width="64.185" height="63.745" viewBox="0 0 64.185 63.745"><defs><style>.a{fill:#fa5531;}.b{fill:#032291;}.c{fill:#fff;}</style></defs><g transform="translate(0 -1.758)"><rect class="a" width="13" height="24" rx="4" transform="translate(9 21.019)"/><path class="b" d="M9.163,49.408l1.659,5.3,5.859.614-4.354,3.292s2.566,6.527,2.121,6.249-5.58-4.185-5.58-4.185L4.908,63.86l1.172-4.8L1.449,55.323l5.8-.614Z"/><path class="b" d="M9.163,49.408l1.659,5.3,5.859.614-4.354,3.292s2.566,6.527,2.121,6.249-5.58-4.185-5.58-4.185L4.908,63.86l1.172-4.8L1.449,55.323l5.8-.614Z" transform="translate(23)"/><path class="b" d="M9.163,49.408l1.659,5.3,5.859.614-4.354,3.292s2.566,6.527,2.121,6.249-5.58-4.185-5.58-4.185L4.908,63.86l1.172-4.8L1.449,55.323l5.8-.614Z" transform="translate(46)"/><g transform="translate(12.506 36.439)"><path class="c" d="M102.619,278.4a2.857,2.857,0,1,0,2.857,2.857A2.86,2.86,0,0,0,102.619,278.4Zm0,3.829a.973.973,0,1,1,.973-.973A.974.974,0,0,1,102.619,282.231Z" transform="translate(-99.762 -278.402)"/></g><g transform="translate(22.929 47.981)"><path d="M201.186,377.1a.942.942,0,0,0-.9-.651h-5.6l-1.729-5.322a.942.942,0,0,0-1.792,0l-1.729,5.322h-5.6a.942.942,0,0,0-.554,1.7l4.527,3.289-1.729,5.322a.942.942,0,0,0,1.45,1.053l4.527-3.289,4.527,3.289a.942.942,0,0,0,1.45-1.053l-1.729-5.322,4.527-3.289A.941.941,0,0,0,201.186,377.1Zm-6.53,3.22a.942.942,0,0,0-.342,1.053l1.045,3.216-2.735-1.987a.95.95,0,0,0-1.107,0l-2.735,1.987,1.045-3.216a.942.942,0,0,0-.342-1.053l-2.735-1.987h3.381a.942.942,0,0,0,.9-.651l1.045-3.216,1.045,3.216a.942.942,0,0,0,.9.651h3.381Z" transform="translate(-182.906 -370.474)"/></g><g transform="translate(45.859 47.981)"><path d="M384.093,377.1a.942.942,0,0,0-.9-.651h-5.6l-1.729-5.322a.942.942,0,0,0-1.792,0l-1.729,5.322h-5.6a.942.942,0,0,0-.554,1.7l4.527,3.289L369,386.761a.942.942,0,0,0,1.45,1.053l4.527-3.289,4.527,3.289a.942.942,0,0,0,1.45-1.053l-1.729-5.322,4.527-3.289A.941.941,0,0,0,384.093,377.1Zm-6.53,3.22a.942.942,0,0,0-.342,1.053l1.045,3.216L375.53,382.6a.942.942,0,0,0-1.107,0l-2.735,1.987,1.045-3.216a.942.942,0,0,0-.342-1.053l-2.735-1.987h3.381a.942.942,0,0,0,.9-.651l1.045-3.216,1.045,3.216a.942.942,0,0,0,.9.651H380.3Z" transform="translate(-365.813 -370.473)"/></g><g transform="translate(0 47.981)"><g transform="translate(0)"><path d="M18.28,377.1a.942.942,0,0,0-.9-.651h-5.6l-1.729-5.322a.942.942,0,0,0-1.792,0l-1.729,5.322H.942a.942.942,0,0,0-.554,1.7l4.527,3.289-1.729,5.322a.942.942,0,0,0,1.45,1.053l4.527-3.289,4.527,3.289a.942.942,0,0,0,1.45-1.053l-1.729-5.322,4.527-3.289A.941.941,0,0,0,18.28,377.1Zm-6.531,3.22a.942.942,0,0,0-.342,1.053l1.045,3.216L9.716,382.6a.95.95,0,0,0-1.107,0l-2.735,1.987,1.045-3.216a.942.942,0,0,0-.342-1.053l-2.735-1.987H7.222a.942.942,0,0,0,.9-.651l1.045-3.216,1.045,3.216a.942.942,0,0,0,.9.651h3.381Z" transform="translate(0 -370.474)"/></g></g><g transform="translate(8.039 1.758)"><g transform="translate(0 0)"><path d="M112.646,25.243a4.267,4.267,0,0,0-2.672-7.6H94.821a17.3,17.3,0,0,0,1.325-4.766c.722-5.053-.369-7.735-1.411-9.1a5.027,5.027,0,0,0-3.427-2.013A2.008,2.008,0,0,0,89.083,3.7c-.176,1.812-.822,6.783-1.746,8.632-2.374,4.748-8.035,7.58-9.783,8.363a3.479,3.479,0,0,0-2.274-.845H67.621a3.5,3.5,0,0,0-3.495,3.495V42.487a3.5,3.5,0,0,0,3.495,3.495h7.659a3.486,3.486,0,0,0,2.6-1.162,8.919,8.919,0,0,0,4.815,1.327h24.619a4.267,4.267,0,0,0,3.2-7.087,4.266,4.266,0,0,0,1.331-6.654,4.267,4.267,0,0,0,.8-7.162ZM75.279,44.1H67.621a1.613,1.613,0,0,1-1.611-1.611V23.34a1.613,1.613,0,0,1,1.611-1.611h7.659a1.6,1.6,0,0,1,1.149.484V43.221a.938.938,0,0,0,.059.327A1.606,1.606,0,0,1,75.279,44.1Zm30.737-17.912h3.958a2.385,2.385,0,1,1,0,4.77h-3.958a.942.942,0,1,0,0,1.884h2.628a2.385,2.385,0,1,1,0,4.77h-3.35a.942.942,0,0,0,0,1.884h2.019a2.385,2.385,0,0,1,0,4.77H82.694a6.968,6.968,0,0,1-3.978-1.14,3.5,3.5,0,0,0,.059-.636V23.34a3.481,3.481,0,0,0-.164-1.057c2.207-1.013,7.859-4.008,10.411-9.114,1.277-2.553,1.913-9.056,1.94-9.332,0-.03,0-.06,0-.09A.1.1,0,0,1,91,3.667a.094.094,0,0,1,.077-.025,3.168,3.168,0,0,1,2.16,1.289c.822,1.074,1.671,3.278,1.042,7.684a12.086,12.086,0,0,1-1.806,5.378.95.95,0,0,0,.729,1.539h16.77a2.385,2.385,0,0,1,0,4.77h-3.958a.942.942,0,1,0,0,1.884Z" transform="translate(-64.126 -1.758)"/></g></g></g></svg>